<svg xmlns="http://www.w3.org/2000/svg" viewBox="0 0 659.96 415.2"><defs><style>.cls-1{fill:#878787;}</style></defs><title>SG-EPS-01-0001</title><g id="Singapore"><path class="cls-1" d="M165.25,420.73l-.39-.3-.29-.41-.62,0,0,.25.21.19.34.22.08.55.22.53.55.32.43-.12,0-.52-.26-.42Zm-25.16-36.12-.32-1.22-.34-1.23-.13-1-.22-.57-.09-.5.09-.82,0-.59.12-.47.23-.35.31-.5.32-.66-.16-.51-.19-.69-.06-.66-.29-.62-.79-2.42-.41-.82-.47-.38-.22-.5-.76-.79-.22.19-.26.76-1.39,2.35-1.48,2.92-1.64,3.27-1.43,2.73-.5,1-.29,1.63-.22.95v1.22l.19,1.13-.13,1-.25.85-.54,1L128,391l-.45.63-.72.63-.13-.19-.06-.72-.32-.54-.47-.5-.22,0-.61.5,0,.11.11.23.12.28.07.24,0,.08-.13,0-.1-.14-.15-.22-.12-.15,0-.18-.07-.08,0,.1v.19l0,.5,0,.33v.32l0,.18.15.3.28.43,0,.33,0,.26.25.43.14.32.05.26h0l.21.67.94,1.47.73,1.6.34,2.14,0,.1-.3,1.15-1.18,1.41-.82,2.1-1.15.42-.55.76-1.77,3.57-2.18,2.26-.74.32-.72-.16-.91-1.14-.1-1.05-.2-.63-.42.2.06,1.18-.32.26.68,1.41,1.15.69,1.09.1,1-.46,9.46-9.65.14-.15,3-2.74h0l.71-.63,2.62-2.63,1.5-1.59.28-.58.1-.61-.25-.3h-.21l-.1.2v.2l-.28.23-.28.28-.18.25-.46.38-.48.56-.43.55-.71.76-.54.41-.22.2-.11.28-.3.17-.26.1-.48.08-.48.05-.38.1-.56.05-.36-.1-.33-.2-.2-.23-.26-.38v-.45l.13-.85v-.72l.09-1.16.13-.94-.06-.7-.13-.59.19-1.13.7-.47,1.26-.54.92-.59,1.67-.76,1-.57,1.65-.75,1.13-.53,1.08-.82.41-.63,0-.66Zm41.21,55.94h.55l.44-.15.2-.19.6-.2.44-.1h.9l.44-.1.52-.13.38,0,.34-.3h1.29l1,.1.39.2.26.25h.67l.64.25.73.73.7.1,2-.81.4-.1h.72l1.75-.06,1.2-.36.54-1,.79-.2.78.2.86.69,1.2.53.83-.78-.79-1.14-.35-.25-.05-.34-.34-.3-.55-.64-1.1-.12-.5-.45-.45-.5-.39-.39-.4-.5-.47-.42-.69-.29-1-.38-.37-.21-.44-1,.2-.44.09-.55,1.21-1.27.56-.44,0-.63-.15-.49-.73-.44-.7.48-.28,1H195l-.49.19-.59.2-.44.05-.54.19-1-.14-.83-.2-.93-.44-.74-1-.58-1-.32-1-.29-.19h-.6l-.69-.2-1.09-.05-.45-.14-.19.05-.54.24-.29.11-.3.29-.74.2-.5.2-.24,0-.31.21-.51.63-.4.05-.39-.14-.59-.39-.4.35h-.45l-.44.29-.65,0-.54.1-.9.15-.84.15-.46.05-.61.09-.47.36-.2.15-.39.24-.2.4-.45.64-.37.32-.07.48-.4.72-.35.56-.54.55-.42.39-.77.61-.8.79-.34,0-.9.35-.34.34-.35.1-.6.55-.64.45-.15.74v.68l.31.36.59.1.6.2.39.2.5.1.49-.1,1.44.15.72.16.93.11.79.16.68.16.88.11.57.12,1.48.32h.4l.18.72,1.54,0,.77-.13.45.14Zm-65.51-42.89c-.06-.16.3-.78.3-1s-.13-1.24-.13-1.54.49-4.55.49-4.55a3.37,3.37,0,0,0-.88.36,3.65,3.65,0,0,0-.33,1.31,17.52,17.52,0,0,1-.56,2.29,7.11,7.11,0,0,0,.07,3.05,1.8,1.8,0,0,0,1,.69c.3,0,.33-.23.33-.36S115.86,397.83,115.79,397.66Zm-21.9-89-.25.19-.52.49-.48.46-.58.46s-.35.35-.35.44.18.32.18.32.55-.28.66-.35a4.39,4.39,0,0,0,.55-.43c.06-.07.57-.51.57-.51l.35-.41.17-.4-.06-.2ZM195.77,460.94l.49.37.53.49.54,0,.53-.25.37,0h.57l.53-.45.21-.36.12-.46v-.61l-.16-.53-.25-.58-.08-.45-.7-.24-.37-.13-1.19-.08-.77-.16-.21.37-.41.45-.65.37-.13-.17,0-.2v-.9l-.49-.33-.53-.08-.41-.13h-.82l-.57.08-.82-.28-.74-.21-.7-.16-.49.37-.49.12-.53.37v2.66l-.09,1-.24.33-.33.36-.45.33-.33.2-.49.25h-.78l-.57.25-.61-.16-.86,0-.13.32-.28,0-.21.13-.16.16-.29-.08-.41-.29-1.47,0-.25.13-.12.86.12.16.45.08.33.08.29.41.2.33v.37l.33.49.08.37,0,.49,0,.66V468l.37.37-.08,1.23.24.08.21.53.24,0,.41.41.37-.12.16-.16.25-.62.25-.16v-.33l.28-.37.5-.33.48,0,.46-.21.49-.08L187,468l.33-.41.33-.37,1.47-.08v-.58l.12-.36.41-.33h1l.45.12.57.41.45.12.53-.24.62,0,.33.2.53.21.78-.17,0-.61-.33-.66-.37-.53v-.41l.17-.25.49-.65V463l-.21-.74,0-.45.25-.08.28-.25v-.69l.21-.05Zm27.86-52.26-.93,0-.94-.32-.95-.27h0v.1l-.08.25,0,.66.67.08.67.36.26.54-.32.82-.44.51.65.69.69.38,1.2.13,0-1.2.13-.95.67-1.22-.15-.38Zm3-11.78-.12-.57-.27-.47-.44-.81-.36-.74L225,394l-.68-.32-.48-.18-.95,0-.65-.24-.87-.21-.89,0h-1.31l-.47,0h-.24l-.48.21-.5.27-.33.17h-.74l-.33.33-.51.18-.53.42-.48.27-.35.26-.39.57-.89,0-.15.21-.48.12-.5.24-.24.47-.21.57.06.89.15.44.15.51.41.3.51.3.59.8.42.33.68.15.63.44,1.19.09,1.78,0,.33-.15.48-.21.38-.11.45-.27.53-.12.33-.27.51-.39.71-.38.36-.12.42-.12.26-.33.39-.24.54-.2.95,0,.41-.15.69-.24.23-.3.24-.27.33-.26Zm-13.41,81.86-.3-.12-.4-.13h-.36l-.22.09-.39.07-.33.12-.28,0-.24-.12h-.46l-.18-.19-.33-.12-.1-.21-.24.12-.12.15H209l-.25.18h-.39l-.28-.18-.66.06-.1,0-.24.25-.42.09h-.34l-.18-.25-.27-.12-.37-.18-.24-.06-.4-.24h-2l-.33-.09-.4-.28-.3-.36-.36-.46h-.95l-.67,0-.36.18-.3.15-.4.25-.24.27-.34.4-.33.12-.31-.06-.36.09-.43.27-.24.28,0,.42-.24.37-.46.12-.39,0V480l0,.55.33.21.67.06.42,0,.55.1.31-.06.09.27.24.3v.46l.21.21.25.46.15.33.36.37.12.36.16.4.24.43.06.33.37.52,0,.39.27.4.24.33.19.37.36.61.43.24.21.15.24.27.4.37.45.39.55.25.49.18h.51l.19-.21.06-.18.33.12.25.09.39.15.82.33.55.25.48.27.46,0,.7.06h.58l.33-.21.15-.18.22-.22.39-.12.4-.27v-.3l.09-.49.09-.52.12-.33.06-.4-.18-.27-.09-.49-.15-.42-.19-.43-.24-.3,0-.31.24-.24v-.31l.15-.39,0-1.07.18-.42,0-.22.15-.21.21.06.19.12.33.19.15-.06.18-.22.28-.15.09-.24.24-.12.15-.13.16-.18.36-.27.15-.34.22-.15-.06-1.7Zm13.33-71.22h0l.06,0Zm163.11-271.6,1.39.93,2.32,1.51,2.79,2.09,1.86,2.32,1.74,1.39,2,1.63,2.56.81L407,147l1.16-1.74,2.79-3.95,3.6-5-.23-.34-2.56-1.4-2.32-1.62-3.37-2.21-3.36-2.09-3-.81-3.37.35-2.67,1.39-1,.81-2.9,1.51L388.46,133v1.05l.35.93Zm115.14,34.74-.62-.5v-.76l-.26-1.11-.54-1-.69-.15-.38-.39-.58-.07-.73-.39-.95-.15-.85-.27-.57-.76-.65-.39-.65-.61-.23-.65-.19-.42-.7-.69-.19-.58-.26-.23-.58-.53-.38-.08-.42-.27-.69-.11-.16.3-.49.27v.94l.49.4.69.85.73.65.62.84.38.54.5.42.49.27.54.49.92.77.61.42.54.46.76.46.66.42.72.54.85.77,1.15,1.22.72.73h1v-.42l-.27-.54Zm-52.05-20.14.72.57.58.39.48.19.29.78.54.5,1,.12.49.34.77.53.32.35.32.45.47.74.43.82.39,1.16.67,1.11,1,.77,1,.53,1.21.73,1.06.67.28.44,0,.77-.44.77-.43.58v1l.48.2.53,0,.19-.48.58-.68.44-.53h.33l.82.58.68.38.72.53,1.16,1,1.3,1.54,1,.77h.62l.49-.24.14-.67-.38-.92-1-1.35-.92-1.06-.77-.63-.91-.68-.78-1-.62-.53-.77-.72-.53-.34-.58-.72-.48-.77-.78-.49-.72-.72-.72-1.11L462.25,155l-1.05-1-1.4-.77-1.74-.44-1.16-.58-.29-.82-.81-1.28-.49-.6-.67-.67-1.35-.63-1,.14.05,1.55Zm98.1,15v.51l.39.23,1-.35.53-.34.51-.44-.32-.4-.46-.16H552l-.46-.25-.42,0h0l-.12.19.14.3-.09.3Zm-82.56-23.68.45.86,0,1,.52.4,1,.52,1.05,1.57.52.91.65.26.92-.26,1.57-.39,1.56.39.13.66.32,1.56.53.34.64.47.86-.15,1.23.26.51.4.62.12.65-.39,1.18.52.91.36.44.23,1.07.5.29.25.27.3.69,1.11,1.35.84,1.52.45,1.8.6.63.45,1.08.27.38-.33.84.45.9.18.27.3,1,.72,1,.12,0,.74.36.48.63,1.12.63,1.43,1,1.56,1.74.21.9-.75.15-1.17-.6-1v-.81l.24-.75,1-.47,1-.06,1.14.59.35.81-.42.21-.59-.36-.9-.27-.72.27-.15.63.36.69.24.72L504,163l1.18.95,1,1.15.09.45.41.68.74,1.27.69,1.13.35-.12-.09-.8.27-.44.32.29-.09.83.24.89h.45l.62-.74.71-.92.94-1.06.92-.42,1-.59.35.24.33.06.06-.92.06-1.13.26-.65.42.06.15,1.12,0,.8-.42.72-.5.68-.35.09-.45-.36-.15.18-.8.47-.35.36.12.71.83,1.6-.27.29-.48-.56-.73-1.18-.3-.09-.95,1.15-.88,1.39.53.77.65.18.41-.09,1.81.27,1.66,0,1.42-.44,1.63-.68,1-.15,1.07-.48.68-.65,2.08.06,1.53.27,1.1-.94.27-1,1.67.07.93.84,1.71-.57,1-.84,1.1-.57.68-.87,0-1-.84-.8-1.14-.61-.08-.53.42-.27.4-.08.82.84,1.75.15.53-.45.3-1.22-.15-.38V161l.65-.42.34.38.49.69.77.26.84-.61.37-.72.12-.5.15-.34.08-.8.3.19,0,1,.46.5.92-.12h0l.09,0,1.11.5,2,1.09.84-.87,1,.15.19.72.8.46,1.63-.53,1-.76.79-.39h.91l1.24.12.72-.25,1.17-.68,1.4,0,1.81-.08.06-1-.48-.73-.7-.19h-.39l-.65-.65v-2.22l1.7-1.7v-.65l-.59-.93.33-.51.08-1.64-1.13-1.11-1.3-.52-.31-.67-1-1-.92-.08-1.52,0-.86.56-1.66-.78h-1.31l-.78.53h-.14l-.78-.66-1.82.92-.66-.39-1.44.26-1.17.26-1.31.52-1.43-.52-1-.65-.92-.4h-1.3l-1.18,1.31-.52-.91-.26-.92-1.7-.39-1.7-.78-1.43-.27-.52.4-2.75.39-1.57.39-.91.26-1.17.53-.53-.4-1.43.4-.53.39-1.56.65-1-.52-.78.26-1.44.78-1.17-.13h-.92l-1.17-.39-1.44.39-.52.13-.92-.52-.91-.91-1.05-.13-.78.39-.66-.92-1.17-.13-2.22-1-1.57-.53-.65-1.7-.37-1.08-.67-.35-1.44-1.57-1.44-.65-1.57-.13-2-.24-1.68-.55-1.29-1-2.5-.16-1-1.44-2.1-.39-3.65-1.05-1.18-.39-1.43.52-.79,1.83-2-.13-1,1.31-.51,1.07-3.15.5-.91.52v1.57l.78.65Zm121.59,12,.69.88,1.27,1h1.87l1.17.49.89.49,1.66-.39,1.67.19,1-.59.39-.88.59-1.27,1.08-.88,1.37.09,1.27-.09,1.47-.59.2-1-.59-1.08-.68-1.28-.69-1.37-1.57-2.25-1.27-.69-1.57-.69-1.08-1-1.47-.19-.59-1.28-.29-1.17-.79-.49-.49,1.08-.09,1.37-.59,1.57-.69.88-1.18.78L592,146l-.59,1.28-.1,1.27-.58,1.08-.59,1-.88.39-.79.4.88,1.27ZM227.37,408.07l-.86-.53-.08.06v.17l.2.32.3.37.14.36.34.53.32.55,0,1.42.14.26.11.12.48-.12v-1.37l.49-.54-.59-.68ZM373.24,104.45l.91,1.22,1,1,.38,1.12-.06.58.91.91-.16,1-.16.7-.06.69.16.53,1,1.38,1,.9.58.06.06,1.11.16.48.74.8.64.74.53.8.32.69.9.59,1,.31.69-.16.53-.53-.1-1.11-.32-1-.48-1.22-.16-.59-1-1.17-.1-.32-.43-.21-.47-.48-.75-.9-.37-.74-.53-.69-.43-.16-.63-.38.1-.63.16-1-.37-.8-.64-.63-.74-.54-.58-.63-.59-.64-.9-.8-1.28-1-.85-.26.06.37Zm-185.31-.64,0,0v0Zm220.2,43.46,1.31.56,1.06.2.7.15,1,.15,2.41,1.91.41-.15,2,.25,5.68.5,2.37.31,1.66-1.41.95-2.32.25-1.2-.4-1.51-1.06-1.36-3.82-2.27-2-1.26-2.87-1.66-2.56-1.5-7.35,10.51Zm-220-42.75.36.4.77.08,1.27-.73,1.56-.88,1-.48.54-.48-.06-.4-.73-.48h-.68l-1.5,0-1-.06-.39.28-.74,1-.6,1,0,.26ZM379,413.23l-.09-.61-.36-.88-.46-.58-1.22-.18-1.22-.25-.88-.76-1-.24-.61.4.12.45.58.28.46.33.52.82.82.52.73.49.88.73,1,.67.4.07.09.51.4.4.36-.61-.09-.88ZM199.69,253.88h-.51l-.48-.36-.6-.75-.3-.37h-.36l-.45.09-.24.22-.27,0-.42-.09-.36.32-.66.63-.3.16-.15.42-.24,1,0,.33v.21l.33.63.51.69,1.05.09-.21-.33-.48-.54.12-.27.45.18.48.57.27.18,1.14-.51.12-.54.27-.09.36.12.27-.18.09.21-.21.63.21.36,2,.81.72.21,0-.36-.57-.69-.63-.69-1-1.14.18-.81ZM197,261.2l.72-.18.57.09.69.06.84.27.66.81.66.6.6.22.63-.06.09-.63.09-.73-.3-.87-.32-1-.67-1-.81-.6-1.29-.39-.9-.09-.84.18-.45.42-.42.63-.18.33-.18.33-.09.48v.69l.48.51ZM620.33,230l-3.13-2.39-3.37-2.31-1.34-.15-2.91-1.87-4.33-2.69L601.59,219l-2.31-.82-2.47-1-1.19.38-2.62.07-2.09-.67-2.69-1.72.3-1.12.52-.89-1-.83-2.32.08-1,1.27-.52,1.27-3.51-.3L577,213.07l0-.44-.32-.81.81-1,.45-1,.65-1,1.88.18-.18-1.4h-1.14l-.89.25-1-.33-.73-1.3-.57-1.86-.9-.76-1.17-2h0l-.2-1.43,0-.64v-.28l-.21-.76-.3-.78-.39-.85-.39-.53-.3-.69-.3-1.06-.29-.6-.68-1-.38-1-.67-.73-.2-1-.38-.85-.57-.72-.47-.56-.74-.54-.28-.56-.29-.43-.51-.24-.14-.09-.73-.39-.3-.18-1-.13-.88-.17-1-.38-.8-.19-1-.58-1.24-.48-1.76-.34-.73-.46-1.16-.35-1.09-.4-1-.37-.87-.38-.87-.39-1.16-.31-.41,0-.44.36-.22.42.15.25h.65l.44.1.65.23.29.32.22.49.29.32.14.43.37.23.36.19.95,0,.44.07.36.23v.33l.14.13.34-.23.3-.29h0l.51.05,1,.2.59.43.07.52v.5l-.07.59.08.63.37.41.58.17-.29.18h0l-.66-.08-.51-.48-.3-.46.14-.68.07-.45-.66-.3-.65-.34-.87-.2-.64.13h0l-.66-.15-.36-.41-.88-.32-.51-.41-.22-.34-.36-.26-.73-.32-.72-.28-.8-.26-.73-.28-.35-.37-.56.14L547,182h0l-.58,0-.51-.2-.65-.22-.51-.23-.42-.25-.78.17-.44.26-.58.33-.51.06h0l-1,0,.09,0h0l-.76,0-.35,0-.69.15-.63.1-.56.05-.76.07h0l-.47,0-.69.24-.38.25-.31.18-.38.22-.51.48-.44.39-.31.3v.12l-.25.2-.32.08-.31.17-.26.32-.06.29V186l-.31.29-.38.23-.57.14-.12.13.06.17.35,0,.32,0h0l.38.09.12.12.38.18.19.2.12.62.26.56.31.33.44.13.38.06.57.07h.56l-.12.25-.44.15-.82.14-.5,0-.63.1h-.46l-.13-.12-.19-.27.12-.25-.19-.2h-.5l-.48,0-.56.09h0l-.12-.25-.29,0,.07.2-.07.2-.5.35v0l0,0-.25-.49-.54.11.25.62-1,.6h0l-.62-.58-.23.09.69.82-.31.26-.25.29-.43.45h0l-.38-.12-.23-.08-.18.19.44.23-.12.13-.25.31-.43.45h0l-.32-.2-.3-.28-.11.09-.12.28.38.36-.19.33-.5.25L524,194h0l-.26-.3-.31-.33-.19-.51v-.4l-.19-.54.06-.51-.48-.27-.24.24-.06.33v.37l.19.39.07.29L522,193l-.37.25v.37l.36.09.68-.2.37-.07h0l.13.25-.24.83.25.28.31.1.19.2.13.34.39.77v.4L524,197l-.06.35-.31.21-.31.08h0l-.19-.11-.13,0,0,.15-.05.27.27.32-.48.64-.69,1-.53.58-.27.75-.32.8-.21,1.43-.06.7-.42.32v0l0,0,.32-1.23-.16-1.81.21-.9.59-.54.9-1.06.06-1.33-.28-.43-.25-.33-.38-.18-.25-.15-.38-.21-.38-.12-.36-.06-.48.1-.75.16-.62.16h-1.13l-.37.07-.25.16-.12.15-.38.1h0l-.49-.06-.67.05-.19.18-.25.12h-.77l-.94-.07-1.31-.12-.81-.17-.62-.11-.66,0-.62.13h0l-.81-.19-.73-.18-.61.38-.6.51-.31.66-.51.51h0l-.53-.14.35-1.63,0-.61-.48-.12L503,196l-1.24-.36-1.36-.45-1-.3-1-.3-.1-.05-.07,0-1.19-.69-1.63-.84-1.77-.73-1-.81-.59-.56-.07-.31-.22-.17-.59-.37-.95-.49-1-.67-1-.66-1.31-.7-1.13-.74-.14-.11-1-.71-1.46-.91-.88-.68-.06-1.08-.3-1.05-.63-1-1.18-1.53-.54-1.07-.23-.31-.77-1.35-.85-1.2-1-1.92-1.56-.55-1.37-.55-2.2-.36-.94.16-2.5,1.17L464,176l-1,.53-.32.05-1,.64.05.59L459.84,179l-1,.8-.9,1,.79,1.22,1,.86.58.79v.59l0,0v0l-.31-.37-.86-1-.69-.43-1-1-1.58,1.48-1.33,1.33-1.27,2.39-.74,2.4-1.65,1.81-1.44.91-2.07.69h0l-1.44-.16-2-.22-2.42-.15-2,.37-1.12.95-.27,1.54-.16,2.18.22,1.23.21.95-.91.06-1,.26-.79.91-.91,1.12v.32H436l.64-.27h0l2.13.11h.58l.91,1.06,1.33.06.11.63-.17.7-.05.63-.58.22h0l-.53-1.12-.64-.53-.69-.58-.51.15-.37.8-.11,1-.58.58-.54,1.47-.75.85-.47.58-.27.48-.75.59-1.27,1.49-.69,1.23-.8,1.43-.75,1.92-.21,1.12.05.42.32.48-.79.06-1.18.95-1.55,1.25-1.11.9-.53.54-.43.8-.11.48-.32.26h0l-.16-.26.1-.86,1-1.27,1.12-.8,1.59-1.33,1-1.18.63-1.38.16-1.33.69-1.12.54-1.22,1.38-2.08.8-1.17.59-1.12.63-.85.86-.9.95-.7.11-.8-.53-.79-.64-.27-1-.11-.78.06h0l-.43-.16.06-.86.16-.64-.38-.63.27-.7.37-.42-.16-.27-1.1-.1-2.81.47-1.86.22-1.65.16h0l.06-.38,2.55-.48,6-.79.32-.16,1.17-1,.22-1.23-.32-1.54-.54-1.38-1-.64.06-1.17.37-.59.9-.27h0l.91.43.77.05.42-.26.37-.64.43-.21.69-.43h0l.48.21.48.91.68.26.94-.26h.77l1.44.37,1.91.43,1.31.1,1.06-.32,1.18-1,.69-1.17.74-2.18.75-2.22,1-1.12,1.38-1.39,1.38-1.44.8-1.06.27-1,1-1.7.32-1.17.1-1.92.11-.47.59-.69.47-.48.59-.21.32-.48.05-.43.38-.32v-.37l-.91-.05-.37-.8-.85-.32-.43-.75.11-1-.85-.68-.72.15h-.56l.11-.21-1.39-1.92-1.06-1.33-.69-1.22-.8-.43-.75-.6-.74-1.11-.22-.48.11-.64-.8-.59-.69-1.27-.53-1.39-.42-2,.26-1.28.48-.48.16-.26-.59-.69-.1-.59.37-.85-.32-1.17-.27-.85-.53-.8-.85-.91-.27-.26.64-.48.16-.59.59-.48-.16-.69L448,143l-.85-.11-.85-.16-.62-.2-.84.74-.48.42-.27.22h0l-.58-.48-1-.11-.83-.1-.74.74-.53.8-.27.37v.69l-2,.11h-3.51l-1.91.48-1.71.9L430,148.36l-1.06,1.76-.91,2.12-1.42,3.2-1.18,2.34-1.17,1.39-.85.8-.16.37.43.53.05.69-.37,1-.37.64-.43,1.33-.32.59-.64.69-.58.32v.27l.32.42-.11.8-.26.21h0l-.53-.47-.74-.48-1.1.21h0l-.69-.11-.8-.21-.73-.16-.41,0-.64.27h0l-.67-.05-.16.37,0,.32.48.11-.05.34-.16.21-.69.22-.22.95.38.16h.9l-.16.48-.69.32-.32.64V175l-.48.05-.1.33.1.21-.26,1.06-.06.48.43.27.37.27-.48.37h0l-.91-.22-.46-.3-.1.2.8.48.16.37h-.58l-.27.69h0l-.64-.21-.73-.37-1,.58-.79.75h-.51l-.2-.21-1.26.69-.64.9-.11.64-.05,1-.69.91-.48.53,0,0v0l-.26-.27.37-.53.48-1.28v-.26l-.11-.54v-1.11l.85-.59.8-.37.59-.16.21-.91.53-.9,1-1.39.8-1.81-.11-1.43-.32-1v-1.07l.38-.8,1.11-.9.64-.43.27-.64-.21-.58-.22-.43-.05-.48.43-.63.69-.22.42-.48.32-.58,1-.59.85-.37,1-.43.53-.53.43-.32.64-.21,1.38-1.17.64-.86.85-1,1.7-1.78.86-.91.58-1.27V154l-.32-.8-.9-.27-1.65-.16-2.08-.26-1.81-.16-1.75-.43L414,151.4l-1.06-.49-1.12-.85-1.28-.8-.37-.42-1.6-.16h-1.41l-1.17.26-.25.16-.22.49-.21.53-.11.58-.69.11h0l-.7-.48-.9-.59-.85-.53-.69-.64.05-.52-.72.36h0l-.7-.8-1.22-.9-1.92-1.81-.95-1,.21-.85-.21-1.12-.8-.68h-.56l-.9,2.18-.59,1h-.4l.32-1,.64-1.44-.32-1.59-1-1.23-2-.85-1.07-.27-1.89-.21h-.53l-.53-.32-.94-.05-1.43.26-1.28.27-1.38.69-.58.8-.43.53-.05.7-7.72-3.66.24-.43.29-.78.3-.44.25-.4-.23-.18.4-1.18.83-.13.16-.17.38-.3.12-.25.32-.37h.27l.5-.18,0-1.5-.14-.36-.82-.18-.09-.45,1.41-.05.22-.36h.73l.18-.37.36-.27.78-.41.18-1,.9-2.25-.63-.91-.27-.77-1.42-2-.81-1.18-.55-.68-.18-.59-.64-.32-.45-.27-.41-.18-.22-.5-.32-.73-.41-.54-.63-.64-.41-.68-.82-.13-.61-.14-.36.23-.41.13-.45.32-.23.45-.4.14v.59l-.69.45-.27.41-.63.18-.32.41-.36.32h-.37l-.36.54-.55,0-.63.64h0l-.72-.28-.14-.22.91-.87.86-.86.73-.41.81-.73.64-.68.36-.63.36-.5.55-.5.5-.27.18-.5.73-.77.25-.42-.48-1.43-.48-1.53-.64-2.27-.54-1.25-1.27-.52-.62-.13-1.57.29-1.7.85-1,.36h0l-.56,0-.55.11h0l-.39,0-.41,0-.46.06h0l-.86-.29-.9-.17-.22.48.49.72.85,1.12-.27.67,0,0v0l-.76-.72-.63-.67-.62-.21-.46-.91-.09-1.23v-2l-.26-4.46.14-.45.67-.09h0l.58,4.24.15.54.11.18.78,1.16.86.19.5-.13h.54l.88-.28.87-1.05,1.11-.89.45-.55.41,0,.72-.09.17-.46.05-1.07-.44-.92-.14-.3-.94-1.42L363,96.65l-.23-.87-.61-.69-2.39-.77-1.45-.73-2-1.15-.5-.47-3-2.64L351.3,89l-1.57.23h0l-.5-.23,0-1.83-1.38-1.08-.69-.72-1.67-.86L342.5,84l-3.19,5.72h0l-.89-.5-.53-.51L340.71,83l-9.15-5-2.33,4.14-1.67,2.94h0l-1.36-.76.79-2.3-.8-.54-.51.16-.75,0h0l-.37-.19-.31-.63-.58-.22-.44.17-1.12.34-.72.5-.35.77-.44.89-.41.41-1.84.47h0l0-1,1.72-2L321.11,80l.46-.35.35-.31.66-.25,1.27-.15.35-.61V78l-.18-.45-.18-.25-.47-.25-.65-.51-1.52-.61-1-.31-.76,0-.86-.2L317.49,75l-1.16.26-1.07.1-1.42.1h0l-1.49-.1-.95.41-1.41.18-.77,0h0l-.7,0-.49.18h0l-.82-.09-1.49-.27-1.48,0-1,.31h-.91l-1.13.41-.55.32-1.13.05-.5.22-1.05.5-.54.09-.72.18-.78.46-.31.59-.86.72-.68.46h0L292.81,80H292l-1,.68-.9.91-.64,1-1.18.41-1,.59-.95.64-1.09.63-1,.45-1,.77-.41.31L281.7,87l-1,.63-1.18,1-.72.91-1,.36-.63.5-.59.27-.46.09-.5.55-1,.86-.32.28-.41.13-.45.41-.73.54-.9.41-.14.46-.63.54-1.05.36,0,.82-1,.41-.18.36-.59.27-1,.64-1.09.45-1.09.5-.45.41-.77.36v.68l-.5.14-.18.63h-.64l-.45.32h-.73l-1,.59-.87.12h0l-.79,0-.59.5-.54.23-.64.54-.45.18-.68.5-.68.86-.64.59-.95,1-.5.72-.55.86-.45.72-.27.82-.41.13-.13.5-.23.09-.18.14-.09.23-.19.22v.46l.46.18.13.59-.31.59-.18.32,0,0v0l-.41-.28-.5-.09-.18-.36-.27-.27-.53-.09-.49.36-.72,0-.19.59h0l-.38-.09-.36.49-.63.32-.05.36-.23.23-.18,1-.5.27-.13.46-.46.72v1.95l-.55.46-.45.36-.77.14-.64.86v0l0,0-.19-.73-.63-.81-.88.13-1.14,0h0l-1.27-.18-3,.13h-2l-1,.27-1.36.37-1,.31,0,.73.18.59,0,1.5,0,0v0l-.68-1.18-.31-.82-.45-.36-.34.13-.68.28-.73,0h0l-.5-.18h-.38l-.5.18h0l-.64-.36-.95-.86-1.36-1-1.09-.64-.91-.36-1.63-.64-2.46,0-.74,1.65.54,1.08.45,1.92.93.88.12,1.14,2.32,2.39,1,2,.59,1.14.59,2.31-.41,1.45-.68,1.14-1.49,1.08-.59,1.23-.91,1.68L216,139.56l-1.5,1.86-1.09,1-1.08,1-.37.73-.13,1.27,0,.45-.36.68-.55.24-.77.72-.54.73-.55.05-.58.45-.87.36h0l-.77-.32-1,0L205,150l-.18.81-.36.28-.91.13-.09.32-.5.23-.09.18-.41.32-.72.27-.73.32-.46.27-.09,1.22-.86.14-.09.45-.63.14h0l-.41-.45-.43-.13-.22.31-.36.18v.36l.09.23v.32l-.64.27-1,.41-.68.22-.23,1.68.32.5h.72l.5.05.32.68-.27.86-.59.41.09.59.27.72.59.14.36.5.5.09.64.41.68.36.59.86,1.13,1.18.46.23.49.45.37.77,1.27.14.41.36.49.18,0,.68-.32.28-.18,1v.73l.41.68.72.86.86,1,.37.63.32.68v.77l.18.5.39.38,0,.07v.32l-.41.37-.55.54-.5.95-.09,1.19-.09,1-.41.82-.13.59-.46.68V184l-.31.27v1.59l0,0v0l-.23-.18,0-1.09-.23-.77-.05-.73-.22-.32v-.91l.18-.9.36-.73-.09-1.09-.72-.64-.1-1.81.19-.05.09-.41-.14-.45-.59-.05-.59-.54.09-.5.14-.5v-.82l-.27-.59-.46-.27,0-.59-.36-.32,0-.36.14-.41-.28-.41-.36-.45-.18-.54-.59-.68h-.36l-.32-.23-.27-.59-.46-.77-.69,0h0l-.23-.27-.18-.59-.32-.41-.62-.17-.66.26-.46.55-.32.27-.31.63-.37.91-.13,1.14v1.59l0,1.26,0,.69,0,.95.18,1.63-.54.46-.46.59-.39,0-.15,1.26-1.18,0-.36.27-.05.54-.36.32-.82.18-.22.23-.64.41-.45.18-.5.36-.46.86-1,.41h0l-.65-.08-.81.58-.69.18h0l-.59-.36-.59-.14.13-1.49h.48l.68.41h.79l.19-.37.36-.22.45-.19.18-.49.32-.46.32-.72,1.09-.23,1-.45.5-.5.63-.78.37-2v-1l-.93.35-.86.31-1.25.05h0l-1.49-.25-.44-.65,1-.14.22-.09.73-.19.91-.68.31-.36.46-.36.95-1-.18-1-.36-.58-1-.27.08-.18,1.08-.82V167l-.34-.68-.2-.88,1.15-.55.81-.47.21-2.64-.34-2.1-.27-.74-.61-.75-.93-.06-1,.4-.2.75-.88.67v0l0,0,.27-1.49-.06-1.42-.74-.6-.86.26-1,.68h-1l-.95-.34-.79-.06-.87.47-.61.94h0l-1.19-.06-.81.2h0l-.41-.27-.07-.54.07-.48v-2l-.54-.27v-1l.48-.68.06-.27-.74-.54-.34-.75h-.65l-.41.61-1,.81-.81.54-1.09.68v.48l-.33.13-.68,1-.54.27-.61.95v-.05l0,.05v-.89h-.81l-.68-.54,0,0,0,0,.39.14.66-.14.68-.27.68-1.08.54-.88h0l.51.06.34-.53h.34l.47-.82.48-.47.61-.81.4-.41.62-.47H177l.82.13.74.41.34.34,1.15,1.62,1.62,1.08.88.55.87.2,1.07-.27.68-.2h0l.55.2h1.15l3.76.2.13-1.08.48-.41h0l.94.07.86.4.27-.4.13-.47.2-.41.82-.95.81-.4.88-.13.81-.6.41-.14.27-.27.88-.54,1.62-1.63.55-.2.81-.68L203,145l1.21-1.55.68-1.56.07-1.42.27-.48v-.54l.34-.54v0l.35.47h.25l.46-.61.75-.47h0l.34.07h.85l.55-.27-.07-.48.4-.34H210l.4-.4-.33-.41v-.4l.67-.61h0l.64.21.66.82.77-2.05-.47-.47-2.1-.45-.85.85-.75.21h0l-.61-.34.06-1.29.28-1,.54-1.16.16-1.16-.72-.81-1.22-.46.15-.82.48-.2,1.28-1-.13-.74-1.29-.54.36-.84-.05-.71-.17-.74-.49-1-1.13-.86-.34-.37.51-1.06v-1.33l-.22-2.31.49-.86,1.16-.81,0-.37-.69-1.29-.81-.68-1.49-.81-.84-.82-.74-.63-.68-.74-.12-.23-.63-.4-.59-.5-.41-.34-.42-.86-.8-.71-.59-.45-.28-.29-.14-.2-.27-1-.53-.2L197,104l-.88,1.35-.74,1.36-.48,1.15v1.08l-.16.3,0,.05.11,2.19-.19,1.1-.4.84-.51.11h0l-.22-1L194,112l.25-.51-.51-.4-.6-.18-.5.18-1,.51-.51.55-.44,1.09.25.92-.76.66-1.14.54-1,.84-.81.81-.69.18h0l-.58-.51h-1.11l-.91.36.14.37,1.32.26.44.47.36,1-.29,1-.8,1.36-.37.4v0l-.19-.48.26-.95.44-1.31-.55-.77-.88-.69-.32-.52.4-.73.69-.18,1.28-.11,1.68-.8,1.2-.7,1.1-1.06.07-1.06.59-1.17,1.13-.76,1.06-.44.26-.14.54-.58v-.94l.34-.28.13-.67.41-.88.45-.33L196,104l-.79-.84-1,.25-.88.4-1.48.68-1.41.59-1.45.59h0l-1.3-.17-.85,0-.12-.83.49-1-.06-1.64-1-.66-1.34-.11-1,.31-1.49.34L181,102l-1.23.34-1.69.18-1.69.55-1.2.08-1.45.36-1.57.49-1.42,1.14-1.34,1.38-1.08,1.19-2.08.91-.43.21-3.68,3v1.27l-.42.06h0l-.08-.09-.69.44-.24.23-.55.54-.87,1.29-1.1.75-.87.47-.61.61-1,.83-.52.52-1.11.89-1,1.06L151.7,122l-1.29,1.07-1.86,1.52-1,.38-2.39.87-.91.4-1.12.21h-.5L142,126l-1.27-.07-.82.39-1.61.83-1.59,1.11.15,2.06-.57.2h0l-.92-.88-.44-.3-1.91-.09L132,130.33l-.58.57-.84.58-1.39.94-1.69.09h0l-.51-.31-.51-.27-.88,0-1,.8-.64,1.1-.16,1.43.15.75-1.24.82h0l-1.22,0-.82.77-.11.85-.27.28-.27,1.54-.25.87-.31.78,1.1,1.73,1.11.15-.15,1.27,0,0v0l-.91-.6-.79.06-1.39.93,0,.65.41,0,.42,0-.43,1-.71.5-.43.39-.59,1.48-.09,1.54.33.51.12.41.21.15.68.41-.5.53-.64,0h0l-.39-.07-1,.34-.29.09-.33.59.1.58.23.48.3.82-.2.48-.18.65-.88.13-.68.34-.81.68-.54.61v.94l-.2.68-.48.34h0l-.25-.33-.3-.48,0-.48-.43-.39-.77-.14-.53.2-.79.28-.6.46-.41.91-.08.71-.2.44.15.45-.53.54-.44.81h0l-.92-.1-.79.41.12,1.31.34.41,0,1,.13.66.13.56-.08.57,0,.73-.58,1.3v.27l-.6.75.07.88.14.42-.05.41.12.69.51.84-.07.64-.23.94,0,.84-.18.68-.1.59-.1.56,0,.15.08.28.41.82,0,1.06-.52.71-.27.75-.34.07-.47.54-.07.47-.3.7-.12,1.51-.26.3,0,.32-.27.66-.59.47-.7.51-.31.57-.07.38-.17.14,0,.41-.17.57-.55.43-.63.37-.39.27-.13.18-.55.81-.86,1,0,.73.54.4L97,196.61l-.9,2.26-.59.36-.86,1.18-.41,1.17,0,.95-.86,1.58-1.22,1.63-.9.41-.19.77.64,1.22-.55.13h0l-.77-1-1.08-.63-.93.09-.13.41,1,.49-.4.37-1.86.67-.54.59.05,1,.37.66h0l-.65,1.3-4.32,7.91-.2.42-.64.95-.49,1-.51.92-.32.6-.33.49-.32.59-.19.5-.41.6-.49.47-.6.6-.81.66-1.5,1.46-.65.89-.18.59-.65,1.3-.21.88-.35,1.35-.65,1.29L72,237.29l-.74,1.48-.08.38h-.14l-.17-.41,0-.62-.44-.55-.74-.2-.88.2-1,.41-1.14.83L66,240.32l-.38,1.51.17,1.65.55,1.27,1,1,.63,0L69,245.2v0l0,0-.78,1.94-.37,1.21-.49.38-1.06,1.1-.21.93-.1.41.62.73-.57,1.7-.56,1.66-.28,1.17L64.68,258l-1.38,1.45-6.7,19.46-7.86,22.25L44.44,312l-1,1.5-.54,2L44,318.08l2,3.85,1.47,2.6.73,1.22.15.31.85,1.29,0,1-.57.12-2,2.1-.25-.28,1.85-1.87-.18-.17L46,330.19,45.56,335l-.68,2-1.17,3-.3.69s-.22.25-.32.25a5,5,0,0,1-.92-.19c-.3-.1-2-.55-2-.55l0-.28.4-.12,0-.58h-.65l-.07.43-.35.17-.45,0-.72-.18-.68-.22-.32-.25-.27.12a.75.75,0,0,0-.1.4,2.6,2.6,0,0,0,.72,1,1.8,1.8,0,0,0,.75.1.79.79,0,0,1,.45.14,6.32,6.32,0,0,1,.2,1.87,2,2,0,0,0,.35,1.25,1.93,1.93,0,0,0,.59.3,2.81,2.81,0,0,0,.43,0s.45.49.45.77c0,.13,0,1,0,1.89s0,2,0,2l-.22.74-.82.78H36.46l0-1.13-.5-.1-.15,1.13-1,0-.08-.5-3,0-.67-.55-.63.55-.24.57-3.15,8.2a2.17,2.17,0,0,0-.12.68.82.82,0,0,0,.45.65,4.82,4.82,0,0,0,.92.27l0-.27L28,360l.2-.68.45-.57.2-.75.3-.52H30l-.2-.65H29l.23-1.37,1.24-1.37.9-2.65h4.91a14.87,14.87,0,0,0,1.65.63c.4.07,2.64.05,3,.12s1.59.18,1.77.23a2.08,2.08,0,0,1,1.53,1.68,2.5,2.5,0,0,1,.07.41c.1,1.72.17,2.07.17,2.07l-.15,2.59a6.85,6.85,0,0,1-.09,1,3.54,3.54,0,0,1-1.46,2.54c-1.59.92-1.39.65-1.39.65a2.74,2.74,0,0,0-1.18.83,1.6,1.6,0,0,0-.32.71,14,14,0,0,0-.22,1.9l-.18.35h-.64l-1.45,1-2,0h-.26l-.17.1.2,2.77a2.63,2.63,0,0,1-.25.92,2.46,2.46,0,0,1-1.2.75c-.37.1-1,.22-1.15.39a1.59,1.59,0,0,0-.17.93,9,9,0,0,1,.25,1.09c0,.1.06.76.12,1.57.1,1.48.23,3.45.23,3.45s.12.67.32.82a1.28,1.28,0,0,0,1.12.07c.4-.17.78-.22.9-.37s.25-.62.35-.7.6-.1.72-.25.1-.62.3-.7,1.4-.55,2-.25A13.88,13.88,0,0,1,42,381.58l.6.1,1.8,3.39a3.3,3.3,0,0,1,.05,1.29,11,11,0,0,1-1.85,2c-.25.13-1.1.4-1.1.4l-1.07.43-1,.19-1.69.13-1.27.5-.75.22-.37-.17s-.13-.5-.25-.5-.4.32-.48.6a34.62,34.62,0,0,0-.22,3.49,1.85,1.85,0,0,0,.27,1.09c.13.08.4.18.45.05s.13-.37.13-.37l-.45,0,.1-.38s.22-.32.42-.35l2.37-.35,1-.32,1.19.1,1,.17.35.45s0,.77.07,1a9.26,9.26,0,0,0,.7,1.55c.23.38,1.8,3.72,1.9,4.16A4.94,4.94,0,0,1,44,402s-.43,1.25-1.17,1.57-9,3.37-9,3.37a2.49,2.49,0,0,0-1.49,1.38c-.44,1.09-.32.71-.35,1.5s.08,6.39.08,6.39-.11,1-.73,1.23a1.41,1.41,0,0,1-.22.06,2.71,2.71,0,0,1-1.77-.12A4.84,4.84,0,0,1,27.34,414c-.12-1.79-.09-2.9-.09-2.9l.2-.21,0-.35-1.05-.35v4.08a5.2,5.2,0,0,0,1.67,3.31,10.12,10.12,0,0,0,3.84,1.76l.31.08c2.49.65,20.21,5.15,20.21,5.15l.27-.51-.21-.55s-18.33-4.83-18.55-5-.63-.13-.84-1.13,1-2.44,1-2.44l.77-.88,5.69.91.85-1.55.27-2.77,1.9-3.5,2.3-.7.36-1.55c0-.69-1.4-4.2-1.6-4.78a11.23,11.23,0,0,0-1.07-1.87c-.25-.39-.15-.93-.3-1.27a3,3,0,0,0-.59-.79c-.24-.29,0-.29-.09-.73s.58-1,1-1.28a8.24,8.24,0,0,1,2.84-.29,2.68,2.68,0,0,0,2-1.08c.44-.59-.05-1.71-.05-1.71S40.18,374,40,373.69a10.3,10.3,0,0,1-.15-2.55c0-.54.93-1.42.93-1.42l17.69-8.33a6.44,6.44,0,0,0,.59-1.18.14.14,0,0,0-.19-.15l-.35.4s-9.51,4.65-9.75,4.65-.25-.05-.44-.14a.41.41,0,0,1-.2-.35s.35-4.12.35-4.36.44-.39.44-.39L71.26,349a2.68,2.68,0,0,1,.63-.15,1.15,1.15,0,0,1,.74.2l-.49,5-7.21,3.57-1.47.3,0,.34,1.81-.2,7.6-3.57L73.66,340l-1.13-.44-.83-1-.79-.15-1.07-.68.68-2,2.2.18.94,0,1,0v.1l0,.82.71.05.13-.8h0l4.43.34.45,0h.89l1.34-.06,1.37-.44,1-.5h0l1.88-1.92,0-.07.13-.29.29-.62.23-.69,0-.34.14-.54,0-.1-.2-2.72-2.4-4.61-3.32-6.3-3.33-5.86-.33-.55-.18.05h0l-.18-.35-.09-.57-.06-.62-.21-.23-.18,0-.2-.24-.12-.41-.15-.48-.24-.29-.15-.44-.24-.42-.29-.47-.24-.77-.12-.3-.38-.21-.33-.2-.09-.56-.09-.33-.15-.29-.15-.51-.12-.23-.27-.45-.23-.18-.12-.23-.24-.18-.24-.53-.24-.42-.18-.23-.17-.74-.39-.86-.18-.21-.27-.26-.12-.48-.44-.68-.3-.2-.12-.24-.3-.5-.17-.12-.3-.36-.3-.41-.44-.47-.6-.74-.61-.69-.55-.57-1.25-1.48,1.61-2.37,2.44-3.39.33-.41,0,0v0l1.71,2-1.49,1.78,2.8,2.83,1.85-1.71h0l.8.64,1.08.86.72.51.72,0,.55-.21.74-.72L81.45,290l1.2-1.2,1.47-1.62,1-1.15.65-.62v0l0,0,.05.05-.16.18.53.53.24-.24-.62-.68.35-.34,0-.05.44-.35.26-.12.42-.24h0l.29.15.35.28,0,0,.06-.06,0,0v0l.15.17h0l.8-.7v0l0,0,.6.55-.76.8.08.15-.31.24.17.17-.2.27.07.09.25.15.5-.22h0l.51.33.15.28,0,.41-.5.56-2.9,2.58,0,.48-.7.64-.33.56-.77.82-.28.43-.77.84-.31.08-.43.28-.36.33-.54.72-.05.35.2.46.44.54.79.89,1.39,1.3.3.41.67.56,1.3,1.16,1.34-1.39v-.23L90,298.26l1.15-1.17.49-.43.28-.31.31-.61.75-.46.79-.49.26-.56.48-.25h0l.47.24.38-.34.87-.84.18-.46.49-.18h0l.38.2-.13.44.21.35.69.44-.49.68-.36.23-1.31,1.35-.54.16-.76.76-.95.72.2.56-.23.15-.36.46-.43.12h0l-.92-.34-.25.27.35.42.32.55-.23.49-.54.48-.41.59-.92,1-.16.33-1.36,1.46-1.41,1.3,1.4,1.64,3.37-2.92h0l.72.69-3.59,2.88.48.64.33.32,2.67-2.23h0L94.09,308l.66.61.71.79.52-.2h0l.44.2,1.18,1.41-3.39,2.83.17.19,1.47-1.19v0l0,0,.73.88,2.24-1.82h0l1.31,1.5-.49.51V314l-.15.48,2.72,1.36,1.48.78,1.54.85.86.61-.29.45.36.21,0-.05h0l.34.2.2-.32-.36-.22.07-.08h0l.75.46v.05l.34.19.06,0h0l.16.13.11.17.09.19.27.39.18.36.09.16L106,321.52l-.84.4-.51.25-.33.09-.29,0h-.23v-.15h0v0h-.16v.16h.47l.33,0,.27-.09,1.15-.53,2.84-1.34h0l.12.29-.33.35.87,1v.07l0,.13,1,1.14,1.24-1,.72-.62,1-.75.79-.66,1.26-1,.93-.74.69-.34,1-.89.73-.48.71-1.32.92-.36.5-.84,0-.41-.49-.51-.6-.63-.42-.5-1-1-.67-.67-.21-.2,0-.14.17-.13h0l.19,0,.14,0,.08-.08-.81-.9-.2.16.08.12.11.13-.11.16,0,.12,0,0v0l-.36-.34-.18-.18-.25-.11-.28-.52-.11-.2-.16-.19h-.14l-.42-.37-.37-.42-.18-.29-.29-.17-.06-.26-.13-.74-.11,0-.6,0h0v-.17h.37l.33-.08.08-.09-.07-.64,0-.13h-.12v-.3h.07l-.05-.22-.13-.37,0-.18,0-.36v-.07l-.32,0v-.25h.23l0-.37-.08-.36V302l.37-.09.27-.06.41-.15,0,0v-.23l-.13-.06-.07-.08,0-.42h-.25l0-.09-.23-.05v0h-.23l0-.1.41,0-.07-.34-.13-.34,0-.3,0-.31.06-.05.84-.12.69-.05,1.3-.08.52-.11.46-.13.49,0,.46-.08h0l.15,1.33V300l.07.85-.06.11,0,.11,0,.42.05.41,0,.54v.36l.08.41.1.42.12.33.14.19,0,.4,0,.28.38.37.25.31.4.44.44.46.1.11.27-.23h0l.08.09.12.11.07.17-.24.23.15.24.57.61.71.71.25.28.06.14.25.19.28.28.15.22.51.55.22.21.2.19.09.35.39.5.57.63.29.28.09.13.22.06.12,0,.1.07.18-.12.23-.18.33-.26.2-.07.44-.36.44-.4v0l.12.19,0,.13.32.27.3.42.41-.13.41-.31,0-.2-.15-.22.91-.41.51-.27.16-.22.05-.16-.24-.32,0-.33,0-.18v-.18l0-.44,0-.71,0-.65-.05-1-.07-.63-.07-.57L131,305l-.2-.86-.15-.45,0-.34v-.18l.1-.36-.21-.2-.18-.22.06-.45,0-.23.21-.16.22-.1.1-.49.13-.28.06-.39-.08-.41-.08-.45-.11-.52-.21-.6.05-.21,0-.65,0-.46-.18-.2-.13-.07-.33.2,0,.15h0l-.1,0v-.37l0-.16,0-.2-.2-.27.08-.06h0l.21.07.08-.11.05-.16.2-.19-.26-.28.53-.29-.18-.86.32-.17h0l.22.21.18.66,1,1,.08.39-.07.45-.1.22-.1.15-.07,0,0,.18.07.15h.23l.1-.09v0l0,0,.05.14,0,.2.14.08.13.05,0,.34-.15.15-.06.07,0,.21,0,.35.08.2.11.21,0,.09,0,.33-.24.21-.17.12-.09.1.05.08.22-.08.26-.09h0l.14.08.12.27.06.19-.1.24v.31l.1.46v.29l.05.33.07.26.08.29,0,.26v.35l.08.31v.7l.06.3,0,.25.05.1-.08.1,0,.3.05.66.09.41.06.22.12.08.05.29-.08.14,0,.13-.06.11v.18l.08.32,0,.17,0,.13v.13l0,.14.19.26.06.32.63-.1,1.29-.21,1.52-.25,1.08-.18.68-.13.14,0,.07-.13h1.26l.14-.12h0l.73,0,.57,0,.23,0h.8l.57,0,.51-.14.41-.1.81-.27.66-.11,1-.3.4-.19.08-.29,0-.76-.08-.67v-.44h0l-.09-.66v-4.05l-.21-.21-.35-.32.42-.07.11-.22-.29-.35v-.29h0l.9.14.56-.95,1.1-.64h1.35l1.21-.39.67-.5.5-.11h0l0,.5-.35.5-.06.54.63.07.1.21-.57,0,0,.18.35.49.54.5.63.75.37.49.52.25.08-.65.31,0h0l.11.61-.09.52,1.59.9h.59l1.13.29.18,2.89,8.18-.25,0-7.7h1.39l.34-.35.28-.07,1-.69h0l.55.76.33.64h0l.08,5.44v8.72l.09.13,0,.82-.18.17,0,1.71v3.19l0,1.55-1.08.05H170l-.71-.56-.46,0-.32-.39-.28-.3-.11,0-.15.14h-.16l-.22.06h0l-.19-.05-.49,0-.3,0-.17-.08-.18-.09-.18,0-.17.1-.14.1h-.32l-.24,0-.13.09-.19.11-.2.14-.28.21-.2.18-.22.1h-.21l-.19.15-.15.14-.09.17,0,.28.06.26-.12.2-.19.06h0l-.23,0h-.41l-.2,0-.27.18-.35.3-.39.4-.08.15,0,.18v.31l0,.25.11.25.16.22.25.17.26.2.17.15,0,0,.56.64.31.28.32.1.06.17.2.27.29.26.46.09.39.22.23.33.29.5.17.37.23.12.22.37.27.6.23.49-.08.25-.15.21-.27,0-.12.1-.15.23-.18.1-.25.21-.17.16,0,.25.17.2h.23l0,.25-.15.29,0,.22.17.29.25.34.27.33.21.31-.11.31-.27.18-.08.23v.39l.14.72.19.7.35.52.29.39.29.57.67.93.43.31.31,0,.44,0,.24.18.29,0h0l.25.15.19.09.26-.21.25-.11h0l.08.15.19.2.41.39.21,0,0,.17-.08.08v.19l.06.06,0,.14-.12.09-.27.26-.23.43-.5.4-.43.22-.56.44-.58.51-.46.52-.22.24-.15.27,0,.12.19,0V342l-.21.06h-.28l-.28-.12-.16,0h0l-.39-.07-.21-.26-.17,0-.23-.12-.37-.14-.84-.66-.17-.54-.35-.16-.5-.29-.25-.43-.35-.25-.29-.31-.45-.35-.15-.37-.25-.45-.14-.78-.17-.89-.23-.66-.06-.76-.29-.35-.18-.56-.29-.43-.27-.45-.44-.54-.71-.68-.54-.57-.07-.7-.18-.46-.52-.59-.39-.1-.46-.4-.25,0-.32.24-.29.31-.23.25-.48.35-.14.25v.21l-.35.27-.81.76-.35.08-.44.23-.31.35-.43.12-.36.19-.43.24-.33.68-.19.18-.17.45.52.47-.18.43.24.29-1.26,1.61.1.56.71.84-.47.35-.53.79-.28.66-.57.52-.39.22.26,1.72,0,.17L149,343l-.19.12h0l-.23-.14-.35-.4-1.09-1-.3-.38.37-.31-.26-.18-.65-.77-.27-.19-.44-.31-.41.2-.15.18-.56.51-.67.75-.28.74-.07.61-.42.18-1.6,2.13-1.07,1.2h0l-.18-.09-1.07-1-1-1-1.32-1.1-2.48-2.31,1.76-1.56.45-.46,1.72-1.65,2-2,.39-.39.65-.66,2.3-2.22.31-1.11.11-1.16.29-.73.78-.95,3.17-3.53,2-2.29.22-.31-.09-.29-.36-.26-.35-.09h-.82l-.81.07-1,.06h-1l-.65.09h0l-.87,0-.69-.05-1.17-.13-.36,0-.82.11h-.69l-.65.11-.67.13-.62.16h0l-.4,0-.46.07-.49.18-.45.11-.41.11-.33.06-.31.07-.65.34-.67.26-.69.27-.6.38-.92.53-.49.24-.58.42-1.45.85-1.34.75-.65.4-1,.67-.72.49-.64.26-.92.56-.62.37-.72.45-.78.54-.39.26-.34.28-.31.27-.66.44-.66.47-.51.29L117.43,333l-.9.63-.87.62-.89.64-.7.53-.51.34-.66.47-1.11.82-.73.5-1.32.88-.66.45-1.42,1-2.54,1.71-1.4,1-.54.35-1.33.93-.95.66-1.22.87-1.41,1-.56.35-.4.22-.31.18-.2.1-.17.2-.13.21,0,.22v.24l.1.51.16.5.11.55,0,.72-.15.43-.25.41-.32.33-.37.23-.26.17-.24.23-.15.38-.08.37-.12.34-.18.33-.09.29,0,.41.1.57,0,.55v.55l0,.38.09.31.2.38.41.1,0,.55h0l.26.63.15.71.29.48.26.39.33.33.4.29.23.2.22.32.35.12.57.11.35,0,.27.13.46.2.37.31.25.3.15.37.07.5,0,.58,0,.59,0,.48-.1.51-.13.24-.22.28-.26.12h0l-.35.1-.1.37-.14.16,0,.24.15.24.22.11.32,0h0l.43,0,.23.06.44.31.46.46.37.49.28.51.26.47.44.48.4.34.15.24.21.67.23.43.19.26.09.35.29.33h0l.38.42.41.79.35.44.22.48.22.55.18.59.28.29.16.39.28.24.13.38-.14.45,0,.5.13.56.3.28.33.27.3.36.28.33.28.36.13.32.16.32.24.26.26.3.33.36.39.18.12.13.32.11.49.31.52.12.41.26.43.27.46.33.41.43.27.3.32.28.4.29.28.31.25.18.36.31.33.15.37,0,.34.19.34.22.39.2.39.18.32.07.57.11.78-.13h0l1,0,.35.07.42-.27h0l.24.07.63.28.1-.06-.47-.29-.15-.18.11-.26.22-.07h0l.18.29.29.47.08.06.54-.17-.31-.72.09-.13v0l.18.2.2.34.09-.05,0-.24.09-.58-.11-.22-.09-.51-.07-.53.08-.32v-.24l.19-.32.32-.48.19-.4.22-.11.26-.32.49-.85.16-.21.29-.4,0-.56.22-.27.16-.27.11-.45.32-.27.13-.29.24-.29.24-.45.22-.43.27-.32,0-.4.16-.29.24-.67.23-.47.37-.26.43-.33.1-.2.06-.13.17-.12.22-.17.35-.29.23-.27.1-.35.15-.39.12-.25.11-.71.14-.49.25-.87.35-.62.22-.54.19-.56.24-.34.39-.64.73-1.12.47-.58.21-.45.34-.42.54-.43.27-.25.12-.19.08-.33,0-.25-.22-.35-.39-.27-.85-.69-1-1L129.63,359l-.72-.64,3.77-4.19,2.62-2.84.35-.41,0,0v0l.37.35.35.31.25.27v.18l.56.25.16.23.23.23-.08.21.14.14.21,0,.37.11.55.43.5.44.53.6.31.25h.1l.72-1h0l.25,0,.41.11.41.1-.1.27-.37.58,0,.12.39.09h.54l1.12-.13,1-.08.62,0,0-.38.08-.53h0l.37,0v.18l.1.06.23.06.46.14,0,.73-.06.72-.1,1.26-.07,1.38v.75l0,.64,0,.37,0,.24.09.17.14.13.27.2.21.1.37.32.27.33.23.76.41,1.39L149,367l.37,1.45.52,1.89.39,1.43.62,2.05.37.95.16.06,1.36-.43,1.5-.48,1.11-.46.92-.37.84-.32,1.29-.43,1.5-.64,1.11-.37,1.29-.47,1-.38.78-.29.38-.12.62-.24.6-.32.54-.29.33-.17.55-.33.52-.31,1.05-.53,1.06-.64.73-.33.43-.25,1.21-.56.41-.34,1.2-.64,1.29-.71.24-.18.29-.39.07-.26v-.29l-.07-.37-.22-.31-.3-.24-.6-.31-.3-.24-.4-.31-.62-.34-1-.6-1.92-1.11-1.61-.88L165.92,357l-1.52-.81-1.77-1,.33-.47.27-.69.17-.54.21-.68.32-.21.1-.27.18-.46.45-.89.83-.48h0l.38.1.45.33.38.2.44.27.66.43.31.21.23.05.22-.16.28-.55.69-1.14.55-1h0l.7.31-.14.61.08.34.21.28.11.3.16.65-.08.52,0,.56.07.28.31.3.45.24.54.29.49.37.65.35.75.39,1,.54.75.52.77.47.78.37,1.24.57.94.62.62.41.44.24.41.48.27.19.3.32.33.33.34.37.42.3.45.26.34.26.36.08.29,0,.3-.12h0l.33,0,.39.05.31.09h.38l.25,0,.27-.2.25-.24.46-.36.35-.38.28-.28.3-.27.42-.38.35-.35.45-.37.29-.29.26-.25.19-.19.22-.24.16-.28L191,357l.17-.27.18-.44.18-.25.22-.19.52-.32.15-.18.23-.11.21-.16.32-.22.17-.23.13-.21.18-.43v-.16l-.06-.37-.15-.46-.06-.24-.21-.28-.31-.49-.55-.24-.29-.19-.38-.22-.51-.09-.15-.08-.4,0h-.29l-.37.06-.34.06h-.46l-.37,0L188,351l-.15-.19.18-.27-.09,0-.32,0-.56.07h0l-.29,0-.66-.17-.56-.2-.94-.55-.69-.47-1.07-.64-1.11-.71-1.17-.7-1.08-.6-.5-.26-.54-.35-.82-.45-.92-.53-.48-.29-.13-.25-.32-.51-.25-.52-.08-.27.15-.05h0l.23.28.35.61.13.3.16.22.64.34.54.39,1.62.87,1,.54,1.29.71.42.29.56.37,1.3.8.83.59,1.24.66.45.16.55.15h.32l.87-.11.6-.12.23-.31.1-.23.33-.27.25-.25.16-.22.56-.42.74-.67.24-.17.18-.18.26-.25.3-.16.22-.18.2-.09h0l.23.06.21.07.17.14.19.15.43.16.39.12.35.14.29.05.18-.1h0l.26.09.32.14.3.11.61.17.56.17.51.14.26.06.18.17.32.16.47.08.25,0,.31-.07.42,0h0l.2,0,.19.08.29.34.28.32.33.27.24.19h.17l.3-.14.55-.27.42-.21.38-.16.27-.14.45-.2.31-.11.29-.05.34,0,.57-.09.26-.08.29-.05.5-.12.45-.08.34-.1.26-.15.31-.2.36-.22.52-.33.33-.15.22-.24.33-.21.8-.64.51-.51,0-.14.21-.27.35-.35.08-.55-.38-.45-.4-.43-.45-.45-.75-.74-.43-.45-.82-.93-.94-.72-1.2-.69-1.12-.92-1.54-.93-.67-.16-.33-.05-.42.12-.32.33-.11.08-.26.07h0l-.47-.27-.38-.23-.77-.5-.34-.41-.56-.47-.73-.64-.35-.39-.29-.43,0-.18-.21-.16-.22.06h0l-.35-.26-.5-.45-.55-.59-.44-.5-.32-.29-.27-.5-.31-.3L194,331l-.47-.56-.42-.45,0,0,0-.05-.11-.16-.29-.3-.11-.6-.11-.71-.08-.61-.18-.86-.17-.64-.14-.56-.18-.38-.11-.43-.36-.6-1-1.65-.61-.39-.54-.28-.54-.33-.79-.39-.57-.36-.43-.21-.61-.36-.65-.24-.58,0-.58.14-.61.5-1,1-.36.07h0l0-.32,1.43-1.36-.1-.25-.25-.11h-.58l-.65-.21-.46-.18H181l-.21.21,0,.36v.57l-.29.47h0l-.44,0-1.22-.21-1.07-.25-1.37-.36-1.19-.28-.49-.11-.08-.22-1.13,0-.18-.13-.19-.26-.25-.32-.21-.52-.12-.52.07-2.65v-1.82l0-.57v0l0-.7h0l0-1.74,0-1.54h.78l.33,0,.24,0h0l.08.12-.08.21-.09.12.05.1.22.1h.43l.27-.07.22-.07.24,0,.54-.12.36-.07.24-.18h0l3,0,3.12,0,1.71,0,.84,0,1.28,0v-.32l-2.11,0V308l.6-.82,0-.14-.05-.14-.07-.08-.1-.1.32-.4-.32-.32-.71-.6-.79-.7-1.95-1.58-1.57-1.38-1.25-1-1.05-.88-.29.32h0l-.19-.11-.2-.07-.28-.22-.24-.24-.31-.05-.32-.15-.45-.1-.5,0-.5,0h0l-.34-.07-.36-.37-.26-.41-.13-.67-.13.22-.18-.36L171.45,296l.78-.74h2.15l.42.69,2.15.57h1.12l.54.45,1,.86,1.7,1.37.55.58.09.21,1.2,1.08.49.21,1.85,1.53,1.75,1.44,1.08.58,1.87.88,3.05,1.47.34-.58.33-.67.13-.13-.56-1.92-1-3-.68.09-.52.22-.61.18-.8.21-.4.07-.37.21-.34.49-.4.37-.15-.16-.08-.22.16-.22.54-.7-.38-.36-.41-.4-.17.22-.27-.36.4-.83,1.08-2.24,1-1.91.36-.18.32-.83.34-1.13.06-.2.25-1.48.29-.8.22-.75.5-.76.86-1.83.65-1.27.69-.93,0-.9-.21-.46-.72-.91-.29-.07-.54-.29-.69,0-.61-.58-.72-.57-1-.72,0-.33.32,0,.69.25,1,.47,1,.72,1.16.86,1,.47.68.11.47-.33,0-.75.54-.94,1-1.4.9-1.19,1-.83,0-.69.29-.75.57-.44.07-.45.11-.79.94-.93-.07-1.27-.29-.64-.58-1.05,0-.76-.33-1.11-1.51,0-1.62.36-.65.18-.68-.4-.51.08-.36-.11-.61-.79-.14-.65,0-1.08.87-1.94.36-1.51.36-2.17,0-1.11-.18-.76-.07-.72-.32-.4-.58-.43-.65-.72-.18-1-.07-.58-.11-.29.25-.5-.07-.69-.65-.5-.68-.33-.54-.25-.33-.32-.07-.65-.21-.29-.54-.22h-.94l-1,.22-.68.18-.58-.4-.65-.5-.4-.68-.72.07-.14-.18.14-.33.47-.14.14-.76.68-.54L187,248l0-.29.4,0,.47.21.46,0,.54-.11,1.05-.15.86.15.65.47,1.08.93.4.15.5,0,1.19-.86.11-.47.14-.07.18.14.29.29.47.47h.68l.65,0,.54.64.33,1,.28,1,.29.9.61.5,1.12.76,0,1.5.83.72.76.8.46.79v1.19l.29.54.37.83.68,1.19.14,1-.25,1.22-.18.59-.14.22H203l-.4-.07-.25,0h-.29l-.57-.26-.94-.57-1.15-1.05-.65-.21-.29-.47-.29-.11-.46.47-.29.5-.58.83,0,.29-.4.9-1.19,1.75v1l.25.47,1.19,0,2.34-.25,1.37.76.54,0,1-.72.26.08-.29.61-.32.43.07,1.08.5.76.36,1.26.54.72.25.44-.18.46-.5.9-.22,1-.21.36-.11.57-.18.9-.18.62-.33.79-.21,1.48-.72,1.5,0,.72-.25.08-.21.21-.9,1-.79,1-.62,1.73-.79.72-.36,1.22-.57.69-.8.65-.9,1.57-.21,1.12-.26.61-.11.25.11.44.07,1-.32.5.18.83.51.68.1.72.33,1.48.39.54.65-.22,1-.07,1.47.29,1.12.28,1.58.29-.47,2.2-2.23-.68h-2.59l-.14.39,0,.17v0l.23.46.1.3.2.4.16.64.14.56,0,.34.1.28.3.31.16.42.06.23.24.07.32.07.31.25.36.06.38.11.56.08.11.13.54.08.42.29h.4l.68,0,.87.16.6.08.58.18.71.12.78.14.72.22,1,.36.72.16.53.22.78.16.74.06.81.18,1,.26.69.14.36.12.19,0,3.14-3.08,0,.19.28.32.29.34.28-.63.06.08-.63,1.45H216l.1-.11.17-.45.18-.23h.22l.17.25,0,.24-.07.4.07.19-.15.26-.24.33-.06.28.06.3.09.4.27.38.32.26.34.21.61.17.86.23.3.09.15.08.21-.06.18-.08.18-.13.31.11v.2l0,.13,0,.09L220,312v.3l.07.24.22.06.38-.38.45-.28.72.26,0,.21.1.23.38.09.49.06.31-.07.26,0,.25.19.34.13.52-.06.24-.13.54-.08.53,0h.46l.87-.1.72-.17.46-.13.42,0,.32-.07.52-.06.34,0,.53,0L231,312l.69-.06.47-.06.29.36.1.55.32.3.33-.09.17-.15,0-.49-.11-.14-.56-.05,0-.11.15-.14.12-.26.21-.17,0-.12-.08-.05,0-.08.12,0,.15.19.09.12.65.07.11-.06.14-.32-.27-.22-.25,0-.42-.06-.15-.21-.19-.72-.21-.32,0-.19-.4-.9-.12-.37-.53-1.72-.06-.7-.13-.84L231,303l-.53-.72-.44,0-.45-.68v-.47l-.09-.66.36-.36,0-.7-.26-.66-.95-.59-.82-.25-.82-.53-.88-.7-.79-.37-1-.21-1,.07-1,.58-1.08.77-1,.28-.84-.18-.64-.3-.34-.43,0-.46.34-.42.54-.14.88-.58.34-.36.22-.39.38-.34.08-.3-.26-.5-.14-.33-.06-.26-.22-.44.12-.44,0-.48,0-.54.08-.45.18-.48.84-1.5,1.06-1.89.47-.89.19-.37.58-.95.12-.26.76.2-.52.91-.12.23-1.36,2.38-.88,1.81-.22,1.08-.14,1.29.1.62.12.41.34.46.38.4.66.36.48.08.48.18h.52l.58,0,.42.22.58.07.34-.09.44.26.45.17.12.18,0,.17.37.38.47.27.53.26.21.34,0,.25.36.5.44.41.19.34.93.42.29.45.17.59.27.62,0,.17,0,.33.09.43,0,.36.1.23.36.62.21.42v.28l.17.6.21.42.23.27.35.24.33.44.21.56-.42.14-.17.15.23.22.51.59.21.53.61.83.51.61.61.55.76-.1.46.26.65.83.6.85.94.76.64.77,1.05,1.12.84.75.49.38.23.57-.21.53-.48.43-.57.95-.17.51-.38.83h0l-1.25,1.9,15.78,9.56L251,337.55,233.83,327l-4.82.88-4.21,6.41,28.32,16.93,10.44-17.64,3.06,1.94-.35.61-2.63-1.4-.79,1L284,348.17l.88-1.93.88-.35,1.31.87L286,348.52l.17.35,1.41-2.11.17-.08v.26l-.61.79.52.79.59.31.28-.09,1-1.14.4.13.48.71-.13.7-.35.39.17.27.53.53.4-.18.35.13.31.7.83.09.92.93.7.7,1.32.92-.35.66.66.48.83.53,1.41,1.37,2.37,2.1.22.31.27-.09,0-.88,0-.66,1.53-1.4-.22-.62.71-.7-.84-1-.79-.52-2.72-2.64-.71-.79-.43-.84-.18-1.32.26-2.19.44.08,0,1.28,0,1,.23.88.83,1.23.74,1,1,.79,1,.66.43,0,.09.49h.27l1,.79,1,.75.7.88.76.17.66-.17H307l.53-.66.31-.35.44-.4,0-.83.35-.13.05-.31.26-.13.27.17.43.48.4.22.7.14.4.17,1-.57.22.31-.48.83,0,.18.7-.75.18.22-.4.57.09.22.44-.26.13.09L313,355l2.06,1.8.66.13.22-.53.26-.08.58.7,2.37.31.08-.31.22-.18,1.23.14v.7l-.17.22V359l-1.89,0-.09.44,2.42,0,.09-1.58,5.18.09,0,4,.71-.27.26.4.4,1.05,1.22,1.19,1.1.66,1.1.35,1.14,0,.57.4.57.44h2.16l.61-1.89.88.22-.17.92.61.53,0,.31-.66.17v.62l6.8,1.71v-.57l4.53-2,.22.35,3.91-1.84L344,357.67l-.35-.62-7.87.09-8.12,4.66-1-.88.17-2.77L337.73,352l9.93-.05,9,8.31,1.31-1.19-3.42-4.26,2-1.67,7.43,8.17,1.09-1-1.93-2.16.92-.75h.59l0-.47-.15-.35,0-11.74.62.08.2-.39-2-.86-.12-.43.55-.78,1.83.7,1.33.7,1.65.71,2,.9L370,347l.9.63,1,.51.82.27,1.41.86,1.6.47,1.29,0,1.17-.39,1.72-1,3.21-2.36,4.38-3.29L391.1,340l.55-.9.23-.86.12-.67-.35-1.25-.51-1.45-.9-1.25-1-.94-.39-.66-1.17-.87-1.95-1.32-1.49-.94L382,328l-2.66-.82-2.43-.71-1.09-.39-.71,0-.82.55v.51l.28.27.35.47-4.42,7-1.84-1.21.2-.2.16-.27-.2-.39-.08-.59-1.33.08-.43.43-.31-.27-.08-.71.9,0,.08-.51-.35-.23,0,.43-.42,0-.12-.86H367l.08-.63h.59v-.31l-.35-.12-.38-.2.19-.88.78-.49v-1l.19-.78-.68-.78h-.58l-1.17.78-.39.49-1,.58-1.17-.29-.68-.49-.48-1.07v-1.16l-.1-.88-.78-.58-1.07-.69-.88-.68-1.07-.09-.87.48-1.27.59v-.59l1-.58,1.84-.29h1l1.22.68.59.29.77.78.88,1.07,1.17,1.36.58.49.39-.1.87-.58,1.17-1.85.68-.2,4.67-.09v-.2l-1.46-1.65.2-.49,1.94,1.75.2.78,2.91.39,4.58.19,1-.39.78-1.45-.3-2.34.1-.29-.39-2.44-.39-3.11-.29-1.55.1-1.66.87-1.75,1.76-1.27,1.45-1.16.78-.39.19-.2-.77-.29-.1-.29.19-.88.39-.39.59.1-.1-.58-.2-.3-.68.3-.48-.39-.68-.59-.1-.58-.68-1-.49-.78-1.16-1.17.19-.49-.1-.29-.48.1.87-1,.68.48.1,1.27.39.58.58.2,1,.68.78-.29.29-.78.69-.68-.2-.39h.49l.48-.49.78-1V295l.1-.58.1-1.26-.59-1.27-.48-.78-.39-.88-.2-.87.59-1.56.39-1.26-.1-.88.48.49,1-.78.29.58L389.05,287l.19,1.27-.58.87.1,1.31,1.26,1.17.59,1.26-.2,1,.1,1.07.58.68.1,1.47-.78,1.16-.87.3-.39.19-.78,1,.58,1.95h2.14l1.07.29.59,2.53-.3,1-.29.39.19.49.59.29,1.17,1.17,1.06.58,1.56.59.39-.2.29.2,1.07.19,2-.68,2.63-2.14,1.65-2.24.39.39.39.49-1.65,1.75-2,2-1.56,1.27-2.53.58-1.75-.19-1.75-.59-1.36.2-.59-1.17h-1.16l.19.39.58.19.1.3-1.55.58-4.18.29-.39-.58-.78-.1-.29.2-.58.87-.2,1.46.29,1.65.49,1.07.48,1.17.78,3.6,1.17,2,1.26,2.53,1.36,1.94,1.56,2.14,1.94,1.95,2.34,2.34.8.58.3-.1.79-.79,1.63-1.26,1.68-1.58,1.85-.7,1,0,1.53-1.67,4-2.75,1.26-.09,1.86-1.91,2.89-2,1.44-.09.75-.59,2.74-2.7,1-.51,1.3-.05L424,316l1.4-.93.7,0,1.21-.83L428,314l.56-.09,3-.89,3.21-.89,4.19-1.44,5.05-1.39,3.73-.79,1.62-1.12,1.72-.7.7.38.37-.52,1.49-.6,1-.14.66-.7,2.74-.42,1.21-.51,1.45-.14,1.72-.75,1-.28.56.14.7-.32,1.53-.38.47.28.42-.32.65-.19.33.28.51-.28,2-.51.7-.19.88.19.89-.61,1.67-.79,0-.51-.65-.24-.14-.55.6-.66,1-.6,1.49-.24.69.47-.18,1.12-1,.7-1.12.14-.09.51,1.07,0,.75.33.41-.23,2.1-.84,1.3-.51.61-.1.45-.74,1.78-.65.6.23,1.72-.7,1-.88,1.16-.7,1.31.09,1.11-.05,2.52-.93,1.35-.7,2.05-.18,1.44-.47.84,0,1.21-.52,1.58-.09,1,0,.57-.49.49.41.65.08.24-.57.57-.4,1.3-.33.73.73.56-.16,1.55-1.38,1-.16.32.32,1.89-.65.89-1h1l.89-.49-.08-.48.33-.33.49-.16,1.21.08.08-.33-3.73-8.68-8.68-7.47-2.27-3.89.49-.17,2.27,3.74,8.6,7.3,4.38,9.17.65-.24,3-1.62,1.78.4,2-.89,3.9-.24.73.56,1-.16,1,.16,1.06-.48.57.4,1-.48-.25-11.61.57-.73.73,12.17-.24.25.32.73.52.48,3.33-1.05,3.49-.81,2.11.16,1.46.81.73,2.6.05.58-.07,1.34-.3,1.72,9.34-2.32,10.22,3.47,2.47,1.24h2.09l3.51-1,2.64-1.72,3.29-2.16,1.71-1.42,3.66-.82,12.59-.65.66.49.16,6.57,5.84.08.08-.81-5.44.16-.4-12,1.38-.16,4,0,3,.15.15,5.83,5.08-.3.65-2.24-1-.82L613,273.3l-8.68.16-12,.46,4.33-10,1.9-5.31,1.07.42,1.87,1.12,2.73,1.24,1.87.75,1.11.5.87-.38-.87-.87-1.61-1.12-1.25-1.11-1.36-1-2.24-1-1.66-.61.19-1.08.81-.22,2-3.13,1.86-3.73L605,245l.7-1.66,1.32.41,1.44.39,1.05.28h.86l.1-.86-1-.48-1.72-.67-1.43-.44,2-2.31.5.26,3.16,1.25,1.73.76,1.15.58.76.48.87-.67.86-1.34.48-1.25-1.15-.67L614.92,238l-1.53-.58-1.92-.57-1.62-.67-1-.27.46-2.56,1.56-2.69,1.57-1.8,1-.67,1,.52,1.72.75,2.23,1.42,1.95.45,3.51,2.54,1.26.45.23-.45-2.32-1.72ZM151.44,308.57l1.17-.05h3.23l.51-.28.1-1.53.33-.84,0-1.16,0-1.58-.28,0-.41,0-.58-.05-1.33-.59-.45-.61-.57-.76-.36-.59-.46-.54-.31-.08-.35-.18-.31-.27-.46-.38-.42-.15-.36.05-.39.12-.3.14-.34.19-.19.28,0,1,.12.61.25.4.53.05.66-.06h.23v.3l-.57.05-.45,0-.43.14-.12.31.24,1.72.23,2.33.23,1.07.33.42,0,.46Zm84.41,94.93.32-.61.3-.67.74-1.1-.07-1.38-.27-.59-.08-.82L236,396.1l-.35-1-.5-.86-.26-.18-.51.47-.52.76-.6,1.06-.63-.1-.06-.3-.16-.43-.59.48-.13.33-.21.52-.29.37-.23.42-.23.6-.27.63-.44,1,.3.59.46.18.58.27.35.5.44.44.71.54.36.71.18.81.47.71.47.12.44-.14.33-.36.39-.47Zm139.3,12.68-.64-.25-.27-.37-.58-1.06-.61-.55-1.25-1.28-.77-.58v-.61l-.12-.24-.48,0-.67-.21-.74-.64-.91-.76-.7-.7-.19-.49-.67-.06-.45.24-.46,0-.7-.12-.95-.21-.34.15.19.34.64.51.58.49.18.49.22.49.3.7-.15,1,.18.64v.57l.55.61.37.52.39.25.49.61,1,.82,1.34.95.64.73.18.52.37.42.94.34.46.34-.21.36,0,.28.57-.06.74-.46.24-.4-.36,0h-.43l-.4-.82.18-.79.55-.71.7-.55.71.09.27.68.34-.13-.07-.67ZM79.91,296.89l-.55.61-.08.38.15.44.68-.53.72-.57.68-.63.36-.29.34-.29-.3-.13-.11-.46-.33-.46-.44.16-.42.54.14.38,0,.24Zm7.39,4.45-.32-.13-.38.26-.48.53-.28.46v.24l.22.22.43-.09.4-.26.35-.37.24-.31-.07-.37ZM684,152.89l-1.6-2.21v-1l-1.41-1.4-1.11-1.72-.65-.69-2.24-2h-.8l-1.41-1.4-1.4-1.6-2.8-2.4-.8-.21-1.2-1.2-1.41-1-2-1h-1l-1.2-.4-2-.6-3.61-1.4-2-1.2L653,130.05h-2.6l-2.3-1.37-1.18-.08-2.56.86-.37,2-.6.6-3.6,1.2h-.6l-2-.2-1.37-1.36-4.23.16-1.17-1.46-.22-.4-2.81-1.2-.41,1.06.47,2-.87,1.24-1.8,1.6-2.41,2-.8,1.2-1.65.42-1.35.38-1-.8-3.9.75-.94-.16-1.13.08-.45-1.28-1.61-.21-1.82,2-.12,1.06.36,1,.19,1.61.55,2.23.66,2,1.2,3,1.19,1.78,0,1.46-.77.45-.26,1.92-1.4,1.8-1.4,2.41-.36,2,1,1.64.2.6,1.4,1.21,2.6,1.8,2.25,1.14,1.56.46.4.8,1,1,2,1.4.8,2.41,1,3.4,2.2.4,1.55,0,1.1.44.76.44,1,.15,1.13.18,1.1.33.75-.15.79.81,1.43.22.76-.22.45-.55.54-.11.77-.77.22-.22.55-.33,1-.66.66-.11.66-.33.4,0,1-.28.55-.65,1.09-.66h1.32l1.43.21,1.32.56h1.21l1.43-.33,1.2-.34,1-.54.56,0-.12.61-.44.55-1,.55-1.2.33-1.43.33h-1.21l-1.32-.55-1.43.05-1.32-.27-1.09.66-.55.66-1.1.55-.33-.22-.66.33-.66.11-1,.66-.55.33-1,1-.43.23-.56.42-.76.22-1.43-.22-.83-.62-.71,0-1.1-.33h-1.21l-.88-.33-.76-.44-1.1-.44-2.15-.05,1.4,1.21.37.81.83,1.18,1.21,1.58,1.3,1.51,1,1.85,1,.67.46.68.7,1.06,1,1.6,1.49,2.07,1,.2.6,1.4.2,1.2,1.2.61.2.8,0,.84-.21,5.11,1.29.83.77,0,1.08.49,1.06-.11,1.39-.58,1.51-.81,1.43-.86,1.37-.68,1.57-.49,2-.59,5.39-2.45,3.53-1.08,2.65-1.37,1.86-.88,1.47-.69,1.77-.69,2.45-1,2.74-1.07,5.39-2.45.26-.93.53-3.78.43-2v-1.61l1.41-1-.41-1.8.41-.4v-.4l.17-1.3.42-1.31,0-1.09.58-.31.4-1.4-.28-.94.6-1,0-1.21.8-2.2-.17-1.06.8-.6-.35-1.17-.28-.86-.18,0-.55.33-.55.55-1.2.55-1,.11-1.65.11-.88.11-1,.66-.88.33-.66.22-.76.11-.66.33-1,.22-.44.77-.77.22-.77.55h-.55l-.77.55-1.1-.11-.44.55L666,170.47l-.54.55-1.1.33-1.21.11-.22.33H661.7l-2.2.22-1,.22-.87.54-.26-.38,0-.16v-.66l.87-.55,1-.22,2.2-.22h1.21l.22-.33,1.21-.11,1.1-.33.55-.55,1.2-1.65.44-.54,1.1.11.77-.55h.55l.77-.55.77-.22.44-.77,1-.22.66-.33.76-.11.66-.22.88-.33,1-.66.88-.11,1.65-.11,1-.11,1.2-.55.55-.55.55-.33.43-.07.28.11,1-1,2.19-1.93v-1.79ZM84.08,300.05l.31-.31.15-.3-.22-.42,0-.37-.17.1-.31.16-.33.07-.35-.23-.38-.34-.59-.2-.41.15-.31.46,0,.53.27.44s.17.31.13.37l-.35.4,0,.32L82,301l.45.46.34.3.28.07.42-.42,0-.55.25-.43ZM363.76,405.66l1.15,0L365,405l.39-1,.58-.69.85-.34,1.07-.06.85.2.62.44.63.57.54.14.57-.2,1-1.13.71-1,.14-.91-.33-.41-.52-.1-.55.14-.06.47-.3.51-.61.46-1.13.32-.93,0-.86-.26-1.17.1-.55.3-.59.49-.54.62-1,.25-1.35.06-.22.26-.08.67.08.12.58.46Zm-96.24,28.67v-.88l0-1.51-.52-1.69-1.47-1.36-4,.18-2.39.3-.76-.05-.73.44-1.13.49-1.32.59-1.18.73-1,.74-1,.24-1.08.05-1.17-.44-.44-.08h0l.13-.14-.79-.39-.92.13-2-1.06-1.32-1.06-2,.4v.79l-.71.23-.73-1.1-.15-4.34-1.51-.7L238,421.09l-.8-1.59-.66.53.13,3.84.14.92.53,2.52-1.06,3.05-.79,1.72-.27,4.23.93,1.59.13,2.91,1.06,1.46,1.45-.14.93-1.05,2.11-.8-.09-1.16.29-.7.9,1.1.3,1.79-.5,1.78-1.16,1.3-2.57,3-.3.71V449l.19.83.59.79.59.73.93.93,1.08,1,.78.88.49.49.74.63L246,457l.54.54,1.08.54.88.54,1.42.09,1-.09.93-.3,1.13-.44,1.23-.59,1.08-.73.78-.84.88-.58,1-.84.69-.78.49-.88.09-1.13.15-1.81.25-1.13v-1l1.42-.69,1.32-.63,1.33-.5.93-.49,1-.58.68-.69.39-.59.54-1.13.25-.88.1-1,.05-1.32-.05-1.39.13-2.06Zm28.55,7.21-.69-.75-.8-.6-.75-.37-.88-.43-.78-.43-.37-.49-.4-.57-.2-.55-.43-.69-.55-.91-.57-.83-.34-.61-.49-.48-.52-.29-.51-.23-.63-.32-.26-.46-.2-.45-.14-.49-.49-.52-.63-.63-.92-.54-.49-.35-.73-.29-.18.46-.15.6-.11,1.06,0,.66.08.63.06.57.23.61.06.31.14.34.12.52.22.37.23.46.12.37.34.55.26.52.29.54.51.32.17.45.38.18.43.34.43.17.25.32.46.31.46.18.69.57.51.11.55.15.23.2.51.37.75.37.83.41.55.22.57.35.57.06.58.17.54.23.57.23.46.23.29-.08.29-.43v-.55l-.18-.54Zm-21.28-20.12-.92.37-.23.74-.24.74.7.75h1.39l.6-.88.05-.88-.74-.74Zm89.8,3.09-.49-.51-.33-.61-.07-.73.4-.74.49-.46.06-.54-.43-.31-.3-.24-.31-.64-.27-1.59,0-.76.55-.21.45.15.34-.13.06-.7-.67-.7-.82-.39-.13.39-.36.37-.58-.19-.86-.64-.69-.15-.25-.46.25-.39-.31-.4-.4-.06-.15.4-.24.18-.67-.18-.86-.49-.76-.06-.61-.4-.06-.43.58-.06-.12-.43-.58-.18-.7-.12-.64.37-.46.18-.58.55-.55.06-.36.46v.48l.21.43.43.34.39.49.49.6.86.83.57.46.64.52.83.67.61.79.67.67,1.28,1.07.79.94.27.77.4.85.61.43.76.21.86.49.3.43.06.48.52.13.49-.34-.12-.61ZM238.5,394.07l.06.7.19.4.15.57.21.26.21,1.2v1.12l.19.41.49.61.12.24.35.16.42.16.38.29.29.13.29.12L243,401l-.2.44.7.1.83,0h.64l.71-.06,1.15.09.95.16.51.13.39.1.45.09.44,0,.52.11.37.15.47.11.46.1.37.16.42.26h.41l.37.42.36.26.21.1.32.37.19.13.32.33.27.25.26.22.21.42.15.42.21.26.21.47.31.37.16.8.16,1.2.15.39.26.06.26.21.42.2h.52l.63.16.57.05h1.1l1.66.16.53.05.46.21h.32l.52.21.52.16.37.07,0-.33-.16-.5-.36-.56-.16-.38-.31-.6-.44-.5-.27-.64-.25-.6-.32-.21-1.09-.17.48-.71.16-.18.1-.19,0-.33-.24-.49-.21-.15-.16-.42-.42-.37-.34-.49-.23-.23-.39-.23-.27-.27-.36-.54-.47-.26-.11-.42-.6-.19-.23.21-.87-1,.18-.41-.23-.19-.47-.42-.29-.06-.32.06-.66-.8-.54-.85L254,398l-1.35-.82.18-.52-.59-.83-.57-.47-.33-.21-.51-.37-.36-.31-.53-.42-.57-.62-.49-.3-.41-.4-.44-.33-.48-.23-.47-.26-.37-.36-.21-.21-.26-.26-.36-.42-.45-.23-.34-.12-.47-.38-.55-.79L243,389l-.92-.21-1.76.37-1.29-.08-.21.39-.32.89-.24.85,0,1.05-.06,1Zm-1.61,12.35.1.77.29.44.19.55.61.32.9.27,1,.18,2,.1.5.14,1.31.08.5.07.5.25,1.07,0,.75.18.74.22.93,0h.86l.48.08.54-.06.71.09.48-.67.6-1,.42-.35.25-.32.23-.35.29-.25.41-.58-1.21-1-.48-.39-.55-.36-.63-.38-1.25-.67-1-.54-.89-.16-1.53-.07-.72.36-.9.11h-1.17l-.86-.47-1-.24-.63,0-1.38-.32,0-.13-.39.39-.36.43-.18.85-.94.89Zm110.91-3.06-.57-.66-.78-.54-.8-.61-.28-.34-.2-.34-.34-.45-.38-.65-.27-.26-.26-.19-.21.17,0,.33,0,.05.32.61.21.35v.52l.32.37.35,0,.52.52.17.34.12.33.15.28.23.36.32.35.46.53.55.31.5.09.09-.73-.11-.37Zm6.84-21.08.67-1.14.77-1,1.18-1.87.78-1,.7-1.33.59-.66.73-1.14.26-.89-.74-.48-1.63-.85-.63-.33-1,.11-.92.44-.74.48-2.32.11-.56.3-.22,1.51-.84,1-.71.45-.48-.23.19-.48.44-.14.15-.3.26-.55.51-1.37-.11-.81-.15-.88-1.06-.19-1.33-.15-1.26-.37-1.54.12-1,.7-1,.18-2.21,0-1.18-.44L338.78,370l-.74-.37-2.7,0-2.95.07-1.33-.18-1.4-.22-1.4-.63-1.33-1-.85-.62-.66-.45-.92-.18-.78-.3-.81-.77-.7-.19-.85-.37-.66-.36-1.11-.3-.77-.55-.37-.7-.37-.45-.42.32-.74,1-1,.41h-.77l-1.2-.09-1.07-.41-.66.17-1.48-.17-1.89-.24-1.81-.74-1.32-.58-1.47.25-1,.83.21.45.43.46.72.69.64.51.1.82.54.71.58.82.29.1.07-.41.44-.35.66-.06.67.11,1.08.67,1.07.74.92.88.81.67.63.7.89.7,1,1.07.56.3.55.33.7.66.44.56.15.59-.11.29-.41-.22-.14.08.11.29.59.29.55.3.59.39.74.55.66.3.74.11.15-.22v-.26h-.44l-.34-.33-.11-.3.23-.41.58-.22.63.22.93.3.84.44.45.59.7.82.4.51.67.22.7.44.88.6.48.81.15.92-.44.41-.37,0-.37-.26-.33.12.4.47.67.74.92.81,1,1,.59.92.4.71.89.1,0-.18-.45-.4-.11-.45,0-.48.3-.22.81.19.48.4.59.44.66.48.77.85,1.18,1,0,1-.37.45v.22l.45.11.22.18.48.48.55.52.41-.08.37.3.62.78.67.29.66-.11.74-.3.85-.62.7-.59,1-.11h1l.52-.37.59-.11v.44l-.22.4v.15l.7-.26.88-.75,1.14-.66.78-.37.89-.81.92-.89.18-.59-.29-.18-.45.18-.29.22-.26-.4-.22-1.05.22-1.11.15-1.42-.26-1.83,0-.77.52-.92,1-1,.29-.18,1.15,1.1,0,.63-.48.7v1l.33.73.11.56-.18.4-.19,1.3,0,1.21.74-.77.92-.81,1-1.07Zm-12.33,40.9h-.43l-.28.26-.16.31.4.07.42.07.07.33-.36.49-.22.74-.24.48-.4.18,0,.25.18.42.16.47.33-.07.06-.85.29-.51.12-.66.37-.45.65-.38V424l-.36-.4Zm-3.16-.6-.31.26-.27,0-.28-.31,0-.33.26-.34.43-.17.13-.25-.6-.35H338v0l.16.13,0,.18-.27.29-.44.13-.11.74.15.26.63.05.29.27.42.46.26-.09.45-.64.07-.25-.16-.11Z" transform="translate(-26.43 -74.99)"/></g></svg>