<?xml version="1.0" encoding="utf-8"?>
<!-- Generator: Adobe Illustrator 22.1.0, SVG Export Plug-In . SVG Version: 6.00 Build 0)  -->
<svg version="1.1" id="Layer_1" xmlns="http://www.w3.org/2000/svg" xmlns:xlink="http://www.w3.org/1999/xlink" x="0px" y="0px"
	 viewBox="0 0 561.5 322.8" style="enable-background:new 0 0 561.5 322.8;" xml:space="preserve">
<style type="text/css">
	.st0{fill:#FFFFFF;}
</style>
<title>singapore</title>
<g>
	<path class="st0" d="M319.4,275.2h-2.5v-21.3h11.9v2.2h-9.4v7.8h8.9v2.2h-8.9L319.4,275.2z"/>
	<path class="st0" d="M341.8,275.2l-0.5-2.3h-0.1c-0.6,0.8-1.4,1.5-2.4,2c-1,0.4-2,0.6-3,0.5c-1.4,0.1-2.7-0.4-3.7-1.2
		c-0.9-0.9-1.4-2.2-1.4-3.5c0-3.2,2.6-4.9,7.8-5.1l2.7-0.1v-1c0.1-1-0.2-2-0.8-2.8c-0.7-0.7-1.6-1-2.6-0.9c-1.6,0.1-3.1,0.5-4.5,1.2
		l-0.8-1.9c1.7-0.9,3.5-1.4,5.4-1.4c1.5-0.1,3,0.3,4.2,1.3c1,1.1,1.5,2.6,1.4,4.1v10.9L341.8,275.2z M336.3,273.5
		c1.3,0.1,2.6-0.4,3.5-1.2c0.9-0.9,1.4-2.2,1.3-3.5v-1.4l-2.4,0.1c-1.4,0-2.9,0.3-4.2,0.9c-0.9,0.5-1.3,1.5-1.3,2.5
		c-0.1,0.8,0.2,1.5,0.8,2C334.7,273.3,335.5,273.5,336.3,273.5z"/>
	<path class="st0" d="M355.9,258.9c0.6,0,1.3,0.1,1.9,0.2l-0.3,2.3c-0.6-0.1-1.2-0.2-1.8-0.2c-1.3,0-2.5,0.6-3.3,1.6
		c-0.9,1.1-1.4,2.5-1.4,3.9v8.6h-2.4v-16h2l0.3,3h0.1c0.5-1,1.3-1.8,2.1-2.4C354,259.2,354.9,258.9,355.9,258.9z"/>
	<path class="st0" d="M381.2,275.2v-10.4c0.1-1-0.2-2-0.8-2.9c-0.7-0.7-1.6-1-2.5-1c-1.3-0.1-2.5,0.4-3.3,1.3
		c-0.8,1.2-1.2,2.6-1.1,4v8.9H371v-10.4c0.1-1-0.2-2-0.8-2.9c-0.7-0.7-1.6-1-2.6-1c-1.3-0.1-2.5,0.4-3.3,1.4
		c-0.8,1.3-1.2,2.9-1.1,4.5v8.4h-2.4v-16h2l0.4,2.2h0.1c0.5-0.8,1.1-1.4,1.9-1.8c0.9-0.4,1.8-0.7,2.8-0.6c2.5,0,4.1,0.9,4.9,2.7h0.1
		c0.5-0.9,1.2-1.6,2.1-2c1-0.5,2-0.8,3.1-0.7c1.5-0.1,3,0.4,4.1,1.4c1,1.3,1.5,2.9,1.4,4.5v10.4L381.2,275.2z"/>
	<path class="st0" d="M401.5,273.5c0.7,0,1.5-0.1,2.2-0.3v1.9c-0.4,0.2-0.7,0.3-1.1,0.3c-0.5,0.1-0.9,0.1-1.4,0.1
		c-3.1,0-4.6-1.6-4.6-4.9v-9.5h-2.3v-1.2l2.3-1l1-3.4h1.4v3.7h4.6v1.9H399v9.4c-0.1,0.8,0.2,1.6,0.7,2.2
		C400.1,273.2,400.8,273.5,401.5,273.5z"/>
	<path class="st0" d="M420.7,267.2c0.1,2.2-0.6,4.4-2,6.1c-1.4,1.5-3.4,2.3-5.5,2.2c-1.3,0-2.7-0.3-3.8-1c-1.1-0.7-2-1.7-2.6-2.9
		c-0.6-1.4-0.9-2.9-0.9-4.4c-0.1-2.2,0.6-4.4,2-6.1c1.4-1.5,3.4-2.3,5.4-2.2c2-0.1,4,0.7,5.3,2.2C420.2,262.8,420.9,265,420.7,267.2
		z M408.5,267.2c-0.1,1.6,0.3,3.3,1.2,4.7c1.8,2,4.9,2.2,6.8,0.4c0.1-0.1,0.2-0.2,0.4-0.4c0.9-1.4,1.4-3,1.2-4.7
		c0.1-1.6-0.3-3.3-1.2-4.6c-1.9-2-5-2.1-7-0.2c-0.1,0.1-0.2,0.2-0.2,0.2C408.9,263.9,408.4,265.5,408.5,267.2z"/>
	<path class="st0" d="M435.6,275.2h-2.5v-21.3H445v2.2h-9.4v7.8h8.8v2.2h-8.8V275.2z"/>
	<path class="st0" d="M448,254.8c0-0.4,0.1-0.9,0.4-1.2c0.3-0.2,0.6-0.4,1-0.4c0.4,0,0.7,0.1,1,0.4c0.3,0.3,0.5,0.8,0.4,1.2
		c0,0.4-0.1,0.9-0.4,1.2c-0.3,0.3-0.6,0.4-1,0.4c-0.4,0-0.7-0.1-1-0.4C448.1,255.7,447.9,255.3,448,254.8z M450.6,275.2h-2.4v-16
		h2.4V275.2z"/>
	<path class="st0" d="M466.7,275.2v-10.4c0.1-1.1-0.2-2.1-0.9-2.9c-0.7-0.7-1.8-1.1-2.8-1c-1.4-0.1-2.7,0.4-3.7,1.4
		c-0.8,0.9-1.2,2.4-1.2,4.5v8.4h-2.4v-16h2l0.4,2.2h0.1c0.5-0.8,1.2-1.4,2.1-1.8c0.9-0.4,2-0.7,3-0.6c1.6-0.1,3.1,0.4,4.3,1.4
		c1,0.9,1.5,2.4,1.5,4.5v10.4L466.7,275.2z"/>
	<path class="st0" d="M483.9,275.2l-0.5-2.3h-0.1c-0.6,0.8-1.4,1.5-2.4,2c-1,0.4-2,0.6-3,0.5c-1.4,0.1-2.7-0.4-3.7-1.2
		c-0.9-0.9-1.4-2.2-1.3-3.5c0-3.2,2.6-4.9,7.8-5.1l2.7-0.1v-1c0.1-1-0.2-2-0.8-2.8c-0.7-0.7-1.6-1-2.6-0.9c-1.6,0.1-3.1,0.5-4.5,1.2
		l-0.7-1.9c0.8-0.4,1.7-0.8,2.6-1c0.9-0.2,1.9-0.4,2.8-0.4c1.5-0.1,3,0.3,4.2,1.3c1,1.1,1.5,2.6,1.4,4.1v10.9L483.9,275.2z
		 M478.4,273.5c1.3,0.1,2.6-0.4,3.6-1.2c0.9-0.9,1.4-2.2,1.3-3.5v-1.4l-2.4,0.1c-1.4,0-2.9,0.3-4.2,0.9c-0.9,0.5-1.3,1.5-1.3,2.5
		c-0.1,0.8,0.2,1.5,0.8,2C476.9,273.3,477.6,273.5,478.4,273.5z"/>
	<path class="st0" d="M501.7,275.2v-10.4c0.1-1.1-0.2-2.1-0.9-2.9c-0.7-0.7-1.8-1.1-2.8-1c-1.4-0.1-2.7,0.4-3.7,1.4
		c-0.8,0.9-1.2,2.4-1.2,4.5v8.4h-2.4v-16h2l0.4,2.2h0.1c0.5-0.8,1.2-1.4,2.1-1.8c0.9-0.4,2-0.7,3-0.6c1.6-0.1,3.1,0.4,4.3,1.4
		c1.1,1.2,1.6,2.8,1.5,4.5v10.4L501.7,275.2z"/>
	<path class="st0" d="M515.5,275.5c-2,0.1-4-0.7-5.4-2.1c-1.4-1.7-2-3.8-1.9-6c-0.1-2.2,0.5-4.4,1.9-6.2c1.4-1.5,3.4-2.3,5.5-2.2
		c0.8,0,1.5,0.1,2.3,0.2c0.6,0.1,1.2,0.3,1.8,0.6l-0.7,2.1c-0.6-0.2-1.2-0.4-1.8-0.5c-0.6-0.1-1.1-0.2-1.7-0.2
		c-3.3,0-4.9,2.1-4.9,6.2c-0.1,1.6,0.3,3.2,1.2,4.5c0.8,1.1,2.2,1.7,3.5,1.6c1.4,0,2.8-0.3,4.1-0.9v2.1
		C518.2,275.3,516.8,275.5,515.5,275.5z"/>
	<path class="st0" d="M530,275.5c-2.1,0.1-4.1-0.7-5.6-2.2c-1.4-1.7-2.2-3.8-2-6c-0.1-2.2,0.6-4.4,1.9-6.1c1.3-1.5,3.1-2.3,5.1-2.3
		c1.8-0.1,3.6,0.6,4.8,2c1.2,1.5,1.9,3.3,1.8,5.2v1.5h-11c-0.1,1.6,0.4,3.1,1.4,4.3c1,1,2.4,1.5,3.8,1.5c1.8,0,3.5-0.4,5.1-1.1v2.2
		c-0.8,0.3-1.6,0.6-2.4,0.8C531.9,275.4,531,275.5,530,275.5z M529.4,260.9c-1.2,0-2.3,0.4-3.1,1.3c-0.8,1-1.3,2.2-1.3,3.5h8.4
		c0.1-1.3-0.3-2.5-1-3.5C531.6,261.3,530.5,260.8,529.4,260.9L529.4,260.9z"/>
</g>
<g>
	<path class="st0" d="M369.9,282.9c0-0.3,0.1-0.6,0.3-0.8c0.2-0.2,0.4-0.3,0.7-0.3c0.3,0,0.5,0.1,0.7,0.3c0.2,0.2,0.3,0.5,0.3,0.8
		c0,0.3-0.1,0.6-0.3,0.8c-0.2,0.2-0.4,0.3-0.7,0.3c-0.3,0-0.5-0.1-0.7-0.3C370,283.5,369.9,283.2,369.9,282.9z M371.7,296.5h-1.6
		v-10.7h1.6V296.5z"/>
	<path class="st0" d="M382.4,296.5v-6.9c0.1-0.7-0.2-1.4-0.6-1.9c-0.5-0.5-1.2-0.7-1.9-0.6c-0.9-0.1-1.8,0.3-2.5,0.9
		c-0.6,0.9-0.9,1.9-0.8,3v5.6h-1.6v-10.7h1.3l0.3,1.5h0.1c0.3-0.5,0.8-1,1.4-1.2c0.6-0.3,1.3-0.4,2-0.4c1.1-0.1,2.1,0.3,2.9,0.9
		c0.7,0.8,1.1,1.9,1,3v7L382.4,296.5z"/>
	<path class="st0" d="M400.8,292.7c0.1,1.1-0.5,2.2-1.4,2.9c-1.1,0.8-2.4,1.1-3.7,1c-1.3,0.1-2.7-0.2-3.9-0.6v-1.6
		c0.6,0.3,1.2,0.5,1.9,0.6c0.7,0.1,1.4,0.2,2,0.2c0.9,0.1,1.7-0.2,2.5-0.6c0.6-0.4,0.9-1.1,0.8-1.8c0-0.4-0.1-0.8-0.3-1.2
		c-0.3-0.4-0.6-0.7-1-0.9c-0.7-0.4-1.4-0.7-2.1-0.9c-1.1-0.3-2-0.9-2.8-1.7c-0.6-0.7-0.9-1.6-0.9-2.5c0-1,0.4-2,1.2-2.6
		c0.9-0.7,2.1-1.1,3.3-1c1.3,0,2.7,0.3,3.9,0.8l-0.5,1.4c-1.1-0.5-2.2-0.7-3.4-0.7c-0.7,0-1.5,0.2-2.1,0.6c-0.5,0.4-0.8,0.9-0.7,1.6
		c0,0.4,0.1,0.8,0.3,1.2c0.2,0.4,0.5,0.7,0.9,0.9c0.6,0.4,1.3,0.6,2,0.9c1.1,0.3,2.2,0.9,3.1,1.7C400.6,291,400.9,291.8,400.8,292.7
		z"/>
	<path class="st0" d="M403.3,282.9c0-0.3,0.1-0.6,0.3-0.8c0.2-0.2,0.4-0.3,0.7-0.3c0.2,0,0.5,0.1,0.7,0.3c0.2,0.2,0.3,0.5,0.3,0.8
		c0,0.3-0.1,0.6-0.3,0.8c-0.4,0.3-1,0.3-1.4,0C403.4,283.5,403.3,283.2,403.3,282.9z M405.1,296.5h-1.6v-10.7h1.6V296.5z"/>
	<path class="st0" d="M415.8,296.5v-6.9c0.1-0.7-0.2-1.4-0.6-1.9c-0.5-0.5-1.2-0.7-1.9-0.6c-0.9-0.1-1.8,0.3-2.5,0.9
		c-0.6,0.9-0.9,1.9-0.8,3v5.6h-1.6v-10.7h1.3l0.3,1.5h0.1c0.3-0.5,0.8-1,1.4-1.2c0.6-0.3,1.3-0.4,2-0.4c1.1-0.1,2.1,0.3,2.9,0.9
		c0.7,0.8,1.1,1.9,1,3v7L415.8,296.5z"/>
	<path class="st0" d="M429.5,285.8v1l-2,0.2c0.2,0.3,0.4,0.6,0.5,0.9c0.1,0.4,0.2,0.8,0.2,1.2c0,1-0.4,1.9-1.1,2.5
		c-0.8,0.7-1.9,1-2.9,0.9c-0.3,0-0.6,0-0.9-0.1c-0.6,0.2-1,0.8-1,1.4c0,0.3,0.1,0.5,0.4,0.6c0.4,0.2,0.8,0.2,1.2,0.2h1.9
		c0.9-0.1,1.9,0.2,2.7,0.7c0.6,0.5,1,1.3,0.9,2.1c0.1,1.1-0.5,2.1-1.4,2.7c-1.3,0.7-2.7,1-4.1,0.9c-1.1,0.1-2.3-0.2-3.2-0.8
		c-0.7-0.5-1.2-1.3-1.1-2.2c0-0.6,0.2-1.2,0.6-1.7c0.5-0.5,1.1-0.9,1.8-1c-0.3-0.1-0.5-0.3-0.7-0.6c-0.2-0.3-0.3-0.6-0.3-0.9
		c0-0.4,0.1-0.7,0.3-1c0.3-0.4,0.6-0.6,1-0.9c-0.6-0.2-1-0.6-1.4-1.2c-0.9-1.5-0.6-3.3,0.5-4.6c0.8-0.7,1.9-1,3-1
		c0.5,0,1,0.1,1.5,0.2L429.5,285.8z M421,298.3c0,0.5,0.3,1,0.7,1.3c0.6,0.3,1.4,0.5,2.1,0.5c1,0.1,2.1-0.1,3-0.6c0.6-0.3,1-1,1-1.6
		c0.1-0.5-0.1-0.9-0.5-1.2c-0.6-0.3-1.3-0.4-2-0.3h-1.9c-0.6,0-1.2,0.2-1.7,0.5C421.2,297.1,420.9,297.7,421,298.3z M421.8,289.3
		c0,0.6,0.2,1.3,0.6,1.7c0.5,0.4,1.1,0.6,1.8,0.6c1.1,0.2,2.2-0.6,2.4-1.7c0-0.2,0-0.4,0-0.6c0.2-1.2-0.6-2.2-1.8-2.4
		c-0.2,0-0.4,0-0.6,0c-0.6,0-1.3,0.2-1.8,0.6C422,287.9,421.8,288.6,421.8,289.3L421.8,289.3z"/>
	<path class="st0" d="M438.2,296.5l-0.3-1.5h-0.1c-0.4,0.6-1,1-1.6,1.4c-0.6,0.3-1.3,0.4-2,0.4c-0.9,0.1-1.8-0.2-2.5-0.8
		c-0.6-0.6-1-1.5-0.9-2.3c0-2.2,1.7-3.3,5.2-3.4l1.8-0.1v-0.7c0.1-0.7-0.1-1.3-0.5-1.9c-0.5-0.4-1.1-0.6-1.7-0.6c-1,0-2.1,0.3-3,0.8
		l-0.5-1.2c1.1-0.6,2.4-0.9,3.6-0.9c1-0.1,2,0.2,2.8,0.9c0.7,0.7,1,1.7,0.9,2.7v7.3L438.2,296.5z M434.6,295.4
		c0.9,0,1.7-0.2,2.4-0.8c0.6-0.6,0.9-1.5,0.9-2.3v-1l-1.6,0.1c-1,0-1.9,0.2-2.8,0.6c-0.6,0.4-0.9,1-0.9,1.6c0,0.5,0.2,1,0.5,1.3
		C433.5,295.2,434.1,295.4,434.6,295.4z"/>
	<path class="st0" d="M447.7,296.7c-0.7,0-1.3-0.1-1.9-0.4c-0.6-0.3-1.1-0.7-1.4-1.2h-0.1c0.1,0.6,0.1,1.2,0.1,1.8v4.4h-1.6v-15.4
		h1.3l0.2,1.5h0.1c0.4-0.5,0.9-1,1.5-1.3c0.6-0.3,1.2-0.4,1.9-0.4c1.3-0.1,2.5,0.5,3.3,1.5c1.5,2.5,1.5,5.7,0,8.1
		C450.2,296.2,449,296.7,447.7,296.7z M447.5,287c-0.9-0.1-1.8,0.3-2.4,0.9c-0.6,0.9-0.8,1.9-0.7,2.9v0.4c-0.1,1.1,0.2,2.2,0.7,3.2
		c0.6,0.7,1.5,1.1,2.4,1c0.9,0,1.7-0.4,2.2-1.1c0.6-0.9,0.9-2,0.8-3.1c0.1-1.1-0.2-2.2-0.8-3.1C449.2,287.4,448.3,287,447.5,287z"/>
	<path class="st0" d="M464.2,291.1c0.1,1.5-0.4,2.9-1.3,4.1c-0.9,1-2.3,1.5-3.6,1.5c-0.9,0-1.8-0.2-2.5-0.7
		c-0.7-0.5-1.3-1.1-1.7-1.9c-0.4-0.9-0.6-1.9-0.6-2.9c-0.1-1.5,0.4-2.9,1.3-4.1c0.9-1,2.3-1.5,3.6-1.5c1.3-0.1,2.7,0.5,3.6,1.5
		C463.8,288.2,464.2,289.7,464.2,291.1z M456,291.1c-0.1,1.1,0.2,2.2,0.8,3.1c1.2,1.3,3.2,1.4,4.6,0.2c0.1-0.1,0.2-0.2,0.2-0.2
		c0.6-0.9,0.9-2,0.8-3.1c0.1-1.1-0.2-2.2-0.8-3.1c-0.6-0.7-1.5-1.1-2.4-1c-0.9-0.1-1.8,0.3-2.4,1C456.2,288.9,455.9,290,456,291.1z"
		/>
	<path class="st0" d="M471.9,285.6c0.4,0,0.9,0,1.3,0.1l-0.2,1.5c-0.4-0.1-0.8-0.1-1.2-0.1c-0.9,0-1.7,0.4-2.2,1
		c-0.6,0.7-1,1.7-0.9,2.6v5.7H467v-10.7h1.3l0.2,2h0.1c0.3-0.6,0.8-1.2,1.4-1.6C470.6,285.8,471.2,285.6,471.9,285.6z"/>
	<path class="st0" d="M479.6,296.7c-1.4,0.1-2.7-0.5-3.7-1.4c-1-1.1-1.5-2.5-1.4-4c-0.1-1.5,0.4-2.9,1.3-4.1c0.8-1,2.1-1.6,3.4-1.5
		c1.2-0.1,2.4,0.4,3.2,1.3c0.8,1,1.3,2.2,1.3,3.4v1h-7.3c0,1,0.3,2,0.9,2.9c0.7,0.7,1.6,1.1,2.5,1c1.2,0,2.3-0.3,3.4-0.7v1.4
		C482.1,296.4,480.9,296.7,479.6,296.7L479.6,296.7z M479.2,287c-0.8,0-1.5,0.3-2,0.8c-0.5,0.7-0.9,1.5-0.9,2.3h5.6
		c0.1-0.8-0.2-1.7-0.7-2.3C480.6,287.2,479.9,286.9,479.2,287L479.2,287z"/>
</g>
</svg>
