<svg id="Layer_1" data-name="Layer 1" xmlns="http://www.w3.org/2000/svg" width="561.54" height="322.8" viewBox="0 0 561.54 322.8">
  <defs>
    <style>
      .cls-1 {
        fill: #42d3d3;
      }

      .cls-2 {
        fill: #fff;
      }
    </style>
  </defs>
  <title>singapore</title>
  <g id="Singapore">
    <path class="cls-1" d="M280.58,94.24l1.41.94,2.36,1.54,2.84,2.13,1.89,2.36,1.77,1.41,2,1.66,2.6.82,2.73.39,1.18-1.77,2.84-4,3.66-5.08-.23-.35-2.61-1.42L300.7,91.2,297.27,89l-3.41-2.13L290.8,86l-3.42.35-2.72,1.42-1,.82-2.95,1.54-1.33,1.12v1.07l.35.94Zm117.13,35.34-.63-.51v-.77l-.26-1.13-.55-1-.7-.15-.39-.4-.59-.07-.74-.4-1-.15-.86-.27-.58-.78-.67-.39-.66-.62-.23-.66-.19-.43-.72-.7-.19-.59-.26-.24-.59-.54-.39-.08-.43-.27-.7-.11-.16.3-.5.27v1l.5.41.7.86.74.66.63.86.39.55.51.43.5.27.55.5.93.78.62.43.55.47.77.46.68.43.73.55.86.78,1.17,1.25.74.74h1v-.43l-.27-.55Zm-52.95-20.49.73.58.59.4.49.19.3.79.55.51,1,.13.5.34.79.54.32.36.33.45.47.76.44.83.4,1.18.68,1.13,1,.78,1,.54,1.23.75,1.07.68.29.45v.78l-.45.78-.44.59v1l.49.2h.54l.2-.49.59-.69.44-.54h.34l.83.59.69.39.74.54,1.18,1,1.32,1.56,1,.79h.63l.5-.25.14-.68-.39-.94-1-1.37-.93-1.08-.78-.64-.93-.69-.79-1-.63-.54-.79-.73-.54-.34-.59-.74-.49-.78-.79-.5-.73-.73-.73-1.13-1.19-1.23-1.07-1-1.43-.78-1.77-.45-1.18-.59-.29-.83-.83-1.31-.49-.61-.69-.68-1.37-.64-1,.14,0,1.58Zm99.8,15.26v.52l.4.23,1-.35.54-.35L447,124l-.32-.4-.47-.17h-.51l-.47-.25h-.43l-.12.19.14.31-.09.3Zm-84-24.09.46.88v1l.53.41,1,.53,1.07,1.6.53.92.66.27.94-.27,1.6-.39,1.58.39.14.67.32,1.59.54.35.65.47.88-.15,1.25.27.52.4.63.13.66-.4,1.2.53.92.36.45.24,1.09.51.3.25.27.31.7,1.13,1.38.85,1.54.46,1.83.61.64.46,1.1.27.39-.34.85.46.92.19.27.3,1,.73,1,.13v.75l.36.49.65,1.14.64,1.45,1,1.59,1.77.21.92-.76.15-1.19-.61-1v-.82l.25-.77,1-.47,1-.07,1.16.6.36.83-.43.21-.6-.36-.92-.28-.73.28-.15.64.36.7.25.73v1.5l1.2,1,1,1.17.09.46.41.69.76,1.3.7,1.14.36-.12-.1-.81.28-.45.32.3-.09.84.25.91h.45l.64-.76.72-.93.95-1.08.94-.43,1-.6.35.25.34.06.06-.94.06-1.15.27-.66.42.06.16,1.14v.81l-.43.74-.51.69-.36.09-.45-.37-.16.19-.81.47-.36.37.13.72.84,1.63-.28.3-.48-.57-.75-1.2-.3-.1-1,1.17-.89,1.42.54.78.66.18.41-.09,1.85.28h1.68l1.45-.45,1.66-.69,1-.15,1.09-.49.7-.66,2.11.06,1.56.27,1.12-1,.27-1,1.7.07.95.85,1.74-.58,1-.85,1.12-.58.69-.89v-1l-.85-.82-1.16-.62-.08-.54.43-.27.4-.08.84.85,1.78.16.54-.46.3-1.24-.15-.39v-.42l.66-.42.35.38.49.7.79.27.85-.62.38-.73.12-.51.15-.35.08-.81.31.19v1l.47.51.93-.13h.1l1.12.51,2,1.11.85-.88,1,.15.19.73.82.47,1.66-.54,1-.77.81-.4h.92l1.26.12.74-.25,1.19-.69h1.42l1.84-.08.06-1-.48-.74-.72-.2h-.39l-.66-.66v-2.26l1.72-1.73v-.66l-.6-.94.34-.52.08-1.67-1.15-1.13-1.32-.53-.32-.68-1-1-.94-.08H443.7l-.87.57-1.69-.79h-1.33l-.8.54h-.14l-.79-.68-1.85.94-.67-.4-1.47.27-1.19.26-1.33.53-1.46-.53-1-.66-.94-.41h-1.32l-1.2,1.34-.53-.93-.27-.94-1.73-.39-1.72-.8-1.46-.27-.53.41-2.8.39-1.59.4-.93.26-1.19.54-.54-.4-1.45.4-.54.4-1.59.66-1-.53-.79.27-1.47.79L404.3,106h-.93l-1.19-.4-1.47.4-.53.13-.93-.53-.93-.92-1.07-.14-.79.4-.67-.94-1.19-.13-2.26-1-1.6-.54-.66-1.73-.37-1.1-.69-.36-1.46-1.6-1.47-.66-1.59-.13-2-.24-1.71-.56-1.31-1-2.54-.16-1-1.47-2.14-.39L370,91.81l-1.2-.4-1.45.53-.81,1.86-2-.13-1,1.33L363,96.09l-3.2.51-.93.53v1.6l.79.66Zm123.69,12.21.71.89,1.29,1h1.9l1.19.5.91.5L492,115l1.69.2,1-.61.4-.89.6-1.29,1.1-.9,1.39.09,1.29-.09,1.5-.6.2-1-.6-1.09-.69-1.31-.7-1.39-1.6-2.29-1.29-.7-1.6-.7-1.1-1-1.49-.19-.6-1.31-.3-1.19-.8-.49-.5,1.09-.09,1.4-.6,1.6-.7.89-1.2.79-.86.51-.6,1.31-.1,1.29-.59,1.1-.6,1-.9.4-.8.41.9,1.29ZM263.88,62.2l.92,1.24,1,1,.38,1.14-.06.59.93.93-.16,1-.17.72-.06.7.17.54,1,1.4,1,.92.59.06.06,1.13.16.49.76.81.65.75.54.82.32.7.92.6,1,.31.7-.16.54-.54-.1-1.13-.33-1L274.22,74l-.16-.6-1-1.19-.1-.32-.44-.22-.48-.48-.76-.92-.38-.75-.53-.7-.44-.17-.64-.38.1-.64.16-1-.37-.82-.66-.64-.75-.55-.59-.64-.6-.65-.91-.81-1.31-1-.86-.26.06.37ZM75.36,61.55Zm224,44.21,1.33.57,1.08.21.71.15,1,.15,2.45,2,.42-.16,2,.26,5.78.51,2.41.31,1.69-1.43,1-2.36.25-1.22-.41-1.54L318,101.78l-3.89-2.31-2-1.28-2.92-1.69L306.58,95l-7.48,10.69ZM75.56,62.28l.37.4.78.08L78,62l1.59-.89,1-.49.55-.49-.06-.41-.75-.49H78.14l-1-.06-.4.29-.75,1-.61,1v.27ZM87.32,214.22H86.8l-.49-.37-.61-.76-.3-.38H85l-.45.1-.25.22h-.27l-.43-.09-.37.32-.67.64-.3.17-.16.42-.24,1v.55l.34.64.51.7,1.07.1-.21-.34-.49-.55.12-.27.46.18.49.58.27.18,1.16-.52.12-.55.28-.09.37.12.27-.18.09.22-.21.64.21.36,2,.83.73.21V218l-.58-.7-.64-.7-1-1.16.18-.82Zm-2.73,7.45.73-.19.58.1.7.06.85.27.68.82.67.62.61.22.64-.06.09-.64.09-.75-.3-.88-.33-1-.68-1-.83-.61-1.31-.39-.91-.09-.86.18-.46.43-.42.64-.19.33-.18.34-.09.49v.7l.49.52ZM37.06,334.15l.63,2.09.37,1,.17.06,1.38-.43,1.53-.49,1.13-.47.93-.38.86-.32,1.31-.44,1.52-.65L48,333.7l1.32-.48,1-.38.8-.3.38-.12.63-.24.61-.33.55-.29.34-.18.56-.33.53-.32,1.07-.54,1.07-.65.75-.33.43-.26,1.24-.57.41-.34,1.22-.65,1.32-.73.24-.18.29-.4.08-.26v-.3l-.08-.37-.22-.32-.3-.24-.61-.32-.31-.24-.41-.32-.63-.34-1-.61-1.95-1.13-1.64-.9L53,319.12l-1.55-.82-1.8-1,.34-.47.27-.71.17-.55.22-.69.32-.21.1-.28.19-.46.46-.91.84-.49h0l.39.1.45.34.39.2.45.28.67.44.32.21.23.05.22-.16.29-.56.7-1.16.56-1h0l.71.32-.14.62.08.34.21.29.12.3.16.66-.08.53v.57l.07.29.31.3.46.25.55.29.5.38.66.35.76.4,1,.55.76.53.79.48.79.37,1.26.58,1,.63.63.42.45.25.41.48.28.2.3.32.34.34.35.37.42.31.46.26.35.27.36.08h.3l.3-.12h.34l.4.05.31.09h.64l.28-.2.25-.25.47-.36.35-.39.29-.28.3-.28.43-.39.36-.35.46-.38.29-.29.27-.26.19-.19.22-.25.17-.28.36-.31.17-.27.19-.45.18-.25.22-.2.53-.32.16-.18.23-.12.21-.16.33-.22.17-.24.13-.21.19-.44v-.16l-.06-.38-.16-.46-.06-.25-.21-.28-.32-.5-.56-.25-.29-.19-.39-.22-.52-.09-.15-.09h-.7l-.38.06-.34.07H76.2l-.77-.3-.15-.19.18-.28H75l-.57.07h-.29l-.67-.17-.57-.2-1-.56-.7-.48-1.09-.65-1.13-.72-1.19-.72-1.1-.61-.51-.26-.55-.36-.83-.45-.94-.54-.48-.3-.14-.25-.32-.52-.26-.53-.08-.28.15,0h0l.24.29.35.62.14.3.16.23.65.34.55.4,1.65.89,1,.55,1.31.72.43.29.56.38,1.33.81.84.6,1.26.67.46.17.56.15h.33l.88-.11.61-.12.24-.32.1-.23.33-.28.26-.25.16-.23.57-.42.75-.69.25-.17.18-.18.26-.26.31-.16.22-.18.21-.09h0l.23.06.21.07.18.14.19.15.44.17.39.12.36.14.3,0,.18-.1h0l.26.09.33.14.3.12L84,310l.57.17.52.14.27.07.18.17.33.16.47.08h.26l.31-.07h.63l.2.08.29.35.29.32.33.28.25.19H89l.31-.14.56-.27.42-.22.39-.16L91,311l.46-.21.32-.11.29-.05h.35l.58-.09.26-.08.3-.05.51-.13.45-.08.35-.1.26-.15.32-.2.37-.23.53-.33.33-.16.22-.24.34-.21.81-.66.52-.51v-.15l.22-.27.35-.36.08-.56-.38-.45-.41-.44-.46-.46L97.2,304l-.44-.46-.83-.95-1-.73-1.22-.7-1.14-.94-1.56-.94-.69-.17-.33-.05-.43.13-.33.33-.11.08-.26.07h0l-.48-.27-.39-.24-.78-.5-.35-.42-.57-.48-.74-.65-.35-.4-.3-.43v-.19l-.21-.16-.23.06h0l-.35-.26-.51-.46-.56-.6-.45-.51-.32-.3-.28-.5-.31-.31-.19-.37-.47-.56-.43-.46h0v0l-.11-.17-.3-.3-.11-.61L80,289.8l-.08-.62-.19-.88-.17-.65-.14-.57-.19-.39-.11-.43-.36-.61-1-1.68-.62-.4-.55-.29L76,283l-.8-.4-.58-.36L74.2,282l-.62-.36-.66-.25h-.59l-.59.14-.62.51-1,1-.37.07h0v-.32l1.46-1.39-.1-.25-.26-.11h-.59l-.66-.22-.47-.18h-.8l-.22.21v1l-.29.48h-.45l-1.24-.22L65,281.8l-1.39-.37-1.21-.28-.5-.11-.08-.23H60.69l-.18-.13-.2-.26-.25-.33-.22-.53-.12-.53.07-2.69v-2.43h0v-.72h0v-3.33h1.38l.08.12-.08.21-.09.12.05.11.22.1h.44l.27-.07.23-.07h.24l.55-.13.37-.07.24-.18H73.81v-.33H71.67v-.39l.61-.84v-.14l-.06-.14-.07-.08-.1-.11.33-.4-.33-.33-.72-.61-.8-.71-2-1.61L67,262.91l-1.28-1L64.61,261l-.3.32h0l-.19-.11-.21-.07-.28-.23-.25-.24-.31-.05-.33-.15-.45-.1h-1l-.35-.08-.36-.37-.27-.42-.13-.68L60,259l-.19-.36-1.25-1.61.8-.75h2.18l.43.7,2.19.58h1.14l.55.46,1,.87,1.73,1.39.56.59.09.22,1.23,1.1.49.21L72.88,264l1.78,1.46,1.09.59,1.91.9,3.1,1.49.35-.59.33-.68.13-.13-.57-2L80,262l-.69.09-.53.23-.62.18-.82.22-.41.07-.37.21-.35.5-.4.38-.16-.17-.08-.22.16-.23.55-.71-.38-.36-.42-.41-.17.22-.28-.36.41-.85,1.1-2.28,1-1.94.36-.18.33-.85.34-1.15.06-.2.26-1.51.29-.81.23-.76.51-.78.87-1.86.66-1.29.7-.94v-.92l-.21-.47-.73-.92-.3-.08-.55-.29h-.7l-.62-.59-.73-.58-1-.73v-.34h.33l.7.26,1,.47,1,.74,1.18.87,1,.48.69.11.48-.33v-.77l.55-1,1-1.43.91-1.21,1-.84v-.7l.3-.77.58-.45.07-.45.11-.81.95-.94-.07-1.29-.29-.66-.59-1.06v-.78L88,229.71H86.42l-1.65.37-.66.18-.69-.4-.52.08-.37-.11-.62-.81-.14-.66v-1.1l.88-2,.37-1.54.36-2.21v-1.12l-.18-.78-.07-.73-.33-.41-.59-.43-.66-.74-.18-1-.07-.59-.11-.3.25-.51-.07-.7-.66-.51-.69-.33-.55-.26-.34-.32-.07-.67-.21-.29-.55-.22h-1l-1,.22-.69.18-.59-.4-.66-.51-.41-.69-.73.07-.14-.19.14-.33.48-.14.14-.78.69-.55-.14-.26v-.3h.41l.48.22h.47l.54-.12,1.07-.15.88.15.66.48,1.1.95.4.15h.51l1.21-.87.12-.48.14-.07.18.14.3.29.47.48h1.36l.55.65.33,1,.29,1,.29.91.62.51,1.14.78v1.52l.85.73.77.82.47.8v1.21l.29.55.38.85.69,1.21.14,1L91.27,224l-.18.6-.15.22h-.25l-.41-.07h-.55l-.58-.27-1-.58L87,222.79l-.66-.22-.3-.48-.29-.11-.47.48L85,223l-.59.84v.3L84,225,82.8,226.8v1l.26.48h1.21l2.38-.25,1.39.77h.55l1-.73.27.08-.3.62-.33.44.08,1.09.5.78.37,1.28.55.73.25.45-.18.47-.51.91-.22,1-.21.37-.12.58-.18.91-.18.63-.34.81-.21,1.5-.73,1.53V243l-.26.08-.21.21-.92,1-.8,1-.63,1.76-.81.73-.36,1.24-.58.7-.82.67L81.82,252l-.22,1.14-.26.62-.11.26.11.45.07,1-.32.51.18.85.52.69.1.73.34,1.51.39.54.66-.22,1-.07,1.5.29,1.14.29,1.6.29-.48,2.24-2.26-.69H83.16l-.14.4v.17h0l.23.47.1.3.21.41.16.65.14.57v.35l.1.28.31.32.16.42.06.24.25.07.32.07.32.26.36.06.39.11.57.08.11.13.55.08.43.3h1.1l.88.16.61.08.59.19.73.12.79.14.73.22,1,.37.73.16.54.23.79.16.76.06.82.18,1,.27.7.14.37.12h.19l3.19-3.13v.19l.29.33.29.34.29-.64.06.08-.64,1.48h.27l.11-.11.17-.46.18-.23h.23l.17.25v.24l-.07.41.07.19-.15.27-.25.34-.06.28.06.31.09.4.28.39.32.26.35.22.62.17.87.23.31.1.15.08.22-.06.18-.09.18-.13.32.11v.43l-.28.28v.3l.07.25.23.06.38-.39.46-.29.74.27v.21l.1.24.38.09.5.06.32-.07h.26l.26.19.34.13.53-.06.25-.13.54-.08h1l.89-.1.73-.18.47-.13h.42l.33-.07.53-.06h.88l.57-.24.71-.07.47-.06.3.37.1.56.33.3.33-.09.17-.15v-.5l-.11-.14-.57-.05v-.11l.16-.15.12-.26.21-.17v-.13l-.08-.05v-.08h.12l.15.2.1.12.66.07.11-.06.14-.33-.27-.22h-.26l-.42-.06-.16-.22-.19-.73-.21-.32v-.2l-.41-.91-.12-.38-.54-1.75-.06-.71-.14-.86-.64-2-.54-.73h-.44l-.46-.69v-.48l-.09-.67.36-.37v-.71l-.26-.67-1-.6-.83-.26-.84-.54-.89-.71-.8-.38-1-.21-1,.07-1,.59-1.1.79-1,.28-.86-.18-.65-.31-.34-.44v-.46l.34-.43.55-.14.9-.59.34-.37.23-.4.38-.34.08-.31-.26-.51-.14-.33-.06-.27-.23-.44.12-.45v-1l.09-.46.18-.49.85-1.52,1.08-1.92.48-.91.19-.38.59-1,.13-.27.77.21-.53.92-.12.24L111,248.77l-.89,1.84-.23,1.1L109.7,253l.1.63.13.42.34.47.39.4.67.37.49.08.49.18h1.12l.42.23.59.07.35-.09.45.26.45.17.13.19v.17l.37.39.48.27.54.27.21.34v.26l.37.51.45.41.19.35.95.43.29.45.18.6.27.63V262l.09.44v.37l.1.23.37.63.21.43v.28l.18.61.21.43.23.28.36.24.34.45.21.57-.43.14-.17.15.23.23.52.6.22.54.62.84.51.62.63.56.77-.1.47.26.66.85.61.86.95.77.66.79,1.06,1.14.86.76.5.39.23.58-.21.54-.49.43-.58,1-.17.52-.39.84h0l-1.27,1.94,16,9.72-4.74,7.45-17.47-10.73-4.9.89L112.87,296l28.81,17.22L152.3,295.3l3.11,2-.36.62-2.67-1.42-.81,1,21.52,12.65.9-2,.89-.36,1.33.89-1.08,1.79.17.35,1.43-2.14.18-.08v.26l-.62.8.52.81.6.31.29-.09,1-1.16.4.13.49.73-.13.71-.36.4.18.27.54.54.4-.18.36.13.31.71.85.09.93,1,.72.71,1.34.94-.36.67.67.49.85.54,1.43,1.39,2.41,2.14.23.31.27-.09v-1.57l1.56-1.42-.22-.63.72-.71-.86-1-.8-.53-2.77-2.69-.72-.8-.44-.85-.18-1.35.26-2.23.45.09v2.32l.24.89.84,1.25.75,1,1,.8,1,.67h.44l.09.5h.27l1,.81,1,.76.71.89.77.18.67-.18h.38l.54-.67.31-.35.45-.41v-.84l.36-.14,0-.31.26-.13.28.17.43.49.41.22.71.14.41.18,1-.58.22.31-.49.85v.18l.72-.76.18.22-.41.58.09.22.45-.26.13.09,0,.55,2.1,1.83.67.13.22-.54.27-.08.59.72,2.41.31.08-.31.22-.19,1.26.14v.72l-.18.22v1.12h-1.92l-.09.45h2.46l.09-1.61,5.27.09v4.07l.72-.27.27.4.41,1.07,1.24,1.21,1.12.67,1.11.36h1.16l.58.41.58.44h2.2l.62-1.92.9.22-.18.94.62.54v.31l-.67.18v.63l6.92,1.74v-.58l4.61-2,.22.36,4-1.87-8.32-7.15-.36-.63-8,.09L217.51,324l-1-.9.17-2.82L227.75,314l10.1-.05,9.16,8.45,1.33-1.21-3.48-4.33,2-1.7,7.56,8.31,1.1-1-2-2.2.94-.76h.6v-.48l-.16-.35V306.75l.63.09.21-.4-2-.88-.12-.43.56-.8,1.86.72,1.36.71,1.67.72,2,.92-.57,1.55.91.64,1,.52.84.28,1.43.87,1.63.48h1.31l1.19-.4,1.75-1,3.27-2.4,4.45-3.34,3.66-2.75.56-.92.24-.87.12-.68-.36-1.27-.51-1.48-.92-1.27-1-1-.39-.67-1.19-.88-2-1.35-1.51-1-2.28-.91-2.71-.83-2.47-.72-1.11-.4h-.72l-.84.56v.52l.29.27.35.48-4.49,7.12-1.87-1.23.2-.2.16-.28-.2-.39-.08-.6-1.36.08-.43.43-.32-.27-.08-.72H258l.08-.52-.36-.24v.44h-.43l-.12-.87h.33l.08-.64h.6v-.32l-.36-.12-.38-.2.19-.9.79-.5v-1l.2-.79L258,287h-.59l-1.19.79-.39.5-1,.59-1.19-.3-.69-.49-.49-1.09v-1.18l-.1-.9-.8-.59-1.08-.7-.9-.69-1.09-.09-.88.49-1.29.6v-.6l1-.59,1.87-.3h1l1.24.69.6.3.79.79.89,1.09,1.19,1.38.59.5.4-.1.88-.59,1.19-1.88.7-.21,4.75-.09v-.2l-1.49-1.68.2-.5,2,1.78.2.8,3,.39,4.66.2,1-.4.79-1.48-.3-2.38.1-.29-.4-2.48-.39-3.17-.3-1.57.1-1.69.89-1.78,1.79-1.3,1.47-1.18.8-.39.19-.21-.78-.29-.11-.3.2-.89.39-.4.6.1-.1-.59-.2-.3-.69.3-.49-.39-.69-.6-.1-.59-.7-1-.49-.79-1.18-1.19.19-.5-.1-.3-.49.1.88-1,.7.48.1,1.3.39.59.59.2,1,.69.8-.29.29-.8.7-.69-.2-.39h.5l.49-.5.79-1v-1.63l.1-.59.1-1.28-.6-1.29-.49-.8-.39-.89-.21-.89.6-1.58.4-1.28-.1-.9.49.5,1-.8.3.6-1.2,1.06.19,1.3-.59.88.1,1.33,1.29,1.19.6,1.28-.21,1,.1,1.09.59.69.11,1.5-.8,1.18-.88.3-.4.2-.79,1,.59,2H282l1.09.29.6,2.58-.3,1-.3.4.2.5.6.29,1.19,1.19,1.07.59,1.59.6.4-.2.29.2,1.09.2,2-.69,2.67-2.18,1.68-2.28.4.4.39.5-1.67,1.78-2,2-1.59,1.29-2.57.59-1.78-.19-1.78-.6-1.38.2-.6-1.19h-1.18l.19.4.59.19.1.31-1.58.59-4.25.29-.39-.59-.8-.1-.29.2-.59.89-.21,1.48.3,1.68.5,1.09.49,1.19.79,3.66,1.19,2,1.28,2.57,1.38,2,1.59,2.17,2,2,2.39,2.38.81.59.3-.1.81-.81,1.66-1.28,1.71-1.61,1.88-.71h1l1.56-1.7,4.07-2.8,1.28-.09,1.89-1.94,2.94-2,1.47-.09.76-.6,2.79-2.74,1-.52,1.32,0,1.44-.68,1.43-.95h.71l1.23-.85.7-.24.57-.09,3.05-.91,3.27-.9,4.26-1.47,5.14-1.41,3.79-.8,1.65-1.14,1.75-.72.71.39.38-.53,1.52-.61,1-.14.68-.71,2.78-.43,1.23-.52,1.48-.14,1.75-.76,1-.29.57.14.71-.32,1.55-.39.48.29.43-.33.66-.19.34.28.52-.28,2-.52.71-.2.9.2.9-.62,1.7-.81v-.52l-.66-.24-.14-.56.61-.67,1-.61,1.51-.25.7.48-.18,1.14-1,.71-1.14.15-.09.52h1.09l.76.33.42-.23,2.14-.86,1.32-.52.62-.1.46-.75,1.81-.66.61.23,1.75-.71,1-.89,1.18-.72,1.33.09,1.13-.05,2.56-.94,1.38-.71,2.08-.19,1.47-.48h.85l1.23-.52,1.61-.1h1l.58-.49.49.41.67.08.24-.58.58-.4,1.32-.34.74.74.57-.16,1.58-1.4,1-.17.32.33,1.93-.66.9-1h1l.9-.5-.08-.49.34-.33.5-.16,1.23.08.08-.34-3.79-8.83-8.83-7.6-2.31-4,.49-.17,2.31,3.81,8.75,7.42,4.46,9.33.66-.24,3.05-1.65,1.81.41,2-.91,4-.24.75.57,1-.17,1,.17,1.08-.49.58.41,1-.49L428.3,234l.58-.75.75,12.38-.25.26.33.74.53.49,3.38-1.07,3.55-.82,2.15.16,1.49.82.74,2.65.05.59-.07,1.36-.31,1.75,9.5-2.36,10.4,3.53,2.51,1.26h2.13l3.57-1,2.69-1.75,3.34-2.2,1.74-1.45,3.73-.83,12.8-.66.68.5.16,6.68,5.94.08.08-.82-5.53.16-.41-12.21,1.4-.16H500l3.05.15.16,5.93,5.17-.3.66-2.28-1-.83-.26-10-8.83.16-12.2.47,4.4-10.18,1.93-5.4,1.09.43,1.91,1.14,2.77,1.26,1.91.76,1.12.51.89-.38-.89-.89-1.63-1.14L499,219.59l-1.39-1-2.28-1-1.69-.62.2-1.1.82-.23,2-3.18,1.89-3.8,1.08-3.44.71-1.69,1.34.41,1.47.4,1.06.29h.88l.1-.88-1-.49-1.75-.68L501,202.1l2-2.35.51.27,3.22,1.27,1.76.77,1.17.59.77.49.89-.68.87-1.36.49-1.27-1.17-.69-1.79-1.07-1.56-.59-1.95-.58-1.65-.69-1-.27.47-2.61,1.59-2.73,1.6-1.83,1-.68,1,.52,1.75.77,2.27,1.44,2,.46,3.57,2.58,1.28.46.24-.46L518,192.11l-2.74-2.18-3.18-2.43-3.43-2.35-1.36-.16-3-1.9-4.41-2.74-3.72-1.61-2.35-.84-2.52-1-1.21.39-2.66.07-2.13-.68-2.73-1.75.3-1.14.53-.9-1-.85-2.36.08-1,1.3-.53,1.29-3.57-.31-3.76-1.68v-.44l-.32-.83.82-1,.46-1,.66-1,1.91.18-.18-1.42h-1.16l-.91.25-1-.33-.75-1.32-.58-1.9-.91-.77L468,161h0l-.21-1.46v-.94l-.21-.77-.3-.79-.4-.87-.4-.54-.3-.7-.31-1.08-.29-.61-.69-1-.39-1-.68-.74-.21-1-.38-.87-.58-.73-.48-.57-.75-.55-.29-.57-.29-.43-.52-.25-.15-.09-.74-.4-.3-.18-1-.13-.9-.18-1-.38-.82-.2-1-.59-1.27-.48-1.79-.35-.74-.47-1.18-.35-1.11-.41-1-.38-.89-.38-.88-.4-1.18-.32h-.42l-.45.37-.22.43.15.25H444l.45.1.66.24.29.32.23.5.29.33.15.44.37.23.37.19h1l.45.07.37.24v.33l.14.14.35-.24.3-.29h0l.52.05,1,.2.6.44.07.53v.51l-.07.6.08.64.38.41.59.18-.3.18h0l-.67-.08-.52-.49-.3-.47.14-.69L451,145l-.67-.3-.66-.35-.89-.2-.65.13h0l-.67-.15-.37-.42-.89-.32-.52-.42-.22-.35-.37-.26-.74-.33-.74-.28-.81-.27-.74-.28-.36-.38-.57.14-.52.11h-.59l-.52-.21-.66-.22-.52-.24-.42-.25-.8.17-.44.27-.59.33-.52.06h-2.06l-.7.16-.64.1-.57,0-.77.07h-.48l-.7.25-.39.25-.32.18-.38.23-.52.48-.45.4-.31.31v.12l-.26.2-.32.08-.32.18-.26.32-.07.3v.48l-.31.29-.39.23-.58.15-.12.13.06.17h.68l.39.09.12.13.39.18.19.2.12.63.27.57.31.34.45.13.39.06.58.07h.57l-.12.26-.45.15-.84.14h-.51l-.64.1h-.46l-.14-.12-.19-.27.12-.26-.19-.2h-1l-.57.09h0l-.12-.25h-.29l.07.2-.07.2-.51.36h0l-.26-.5-.55.11.26.63-1,.61h0l-.63-.59-.23.1.7.83-.32.26-.25.3-.44.46h0l-.39-.13-.23-.08-.18.2.44.23-.12.13-.25.32-.44.46h0l-.32-.21-.31-.28-.11.09-.12.28.38.37-.19.34-.51.25-.94.18h0L417,153l-.32-.34-.19-.52v-.4l-.19-.55.06-.52-.49-.28-.24.25-.06.33v.38l.19.4.07.29-.6.25-.38.25v.38l.37.09.69-.2.38-.08h0l.13.26-.24.84.25.29.32.1.19.2.13.35.4.78V156l-.21.4-.06.35-.31.22-.32.08h0l-.19-.12h-.13v.16l-.05.27.27.33-.49.65-.7,1-.54.59-.27.76-.33.81-.21,1.46-.06.71-.43.33h0l.33-1.26-.17-1.84.22-.91.6-.55.91-1.08.06-1.35-.28-.44-.26-.34-.38-.18-.26-.15-.38-.22-.39-.12-.37-.06-.48.1-.77.17-.63.16H410l-.37.07-.26.16-.12.15-.39.11h0l-.5-.06-.68,0-.19.18-.26.12h-.78l-1-.07-1.34-.12-.82-.17-.63-.12h-.67l-.63.14h0l-.83-.2-.74-.18-.62.39-.61.51-.32.68-.52.51h0l-.54-.14.36-1.66v-.62l-.49-.12-1.24-.18-1.26-.37-1.38-.46-1-.3-1-.31-.1-.05H391l-1.21-.7-1.66-.85-1.8-.75-1-.82-.6-.57-.07-.32-.22-.17-.6-.37-1-.5-1-.68-1-.68-1.34-.71-1.15-.75-.14-.11-1-.73-1.48-.92-.9-.69-.06-1.1-.3-1.07-.64-1-1.2-1.55-.55-1.09-.24-.32-.78-1.37-.87-1.22-1-1.95-1.59-.56-1.39-.56-2.24-.37-1,.16-2.54,1.19L356.21,135l-1,.54-.33.05-1,.65,0,.6L352,138l-1,.82-.92,1,.8,1.24,1,.87.59.8v.61h0l-.31-.38-.88-1-.7-.44-1-1-1.6,1.5-1.36,1.36-1.29,2.43-.75,2.44-1.68,1.84-1.47.93-2.1.7h0l-1.47-.17-2-.22-2.46-.15-2,.37-1.14,1-.27,1.57-.16,2.22.22,1.25.21,1-.92.06-1,.27-.8.92-.93,1.14v.33h1.24l.65-.28h0l2.17.12h.59l.93,1.07,1.35.07.11.64-.17.71-.05.64-.59.22h0l-.54-1.14-.65-.54-.71-.59-.51.16-.38.81-.11,1-.59.59-.55,1.49-.77.87-.47.59-.28.49-.76.6-1.29,1.51-.71,1.25-.81,1.46-.76,1.95-.22,1.14.06.43.32.49-.8.06-1.2,1-1.58,1.28-1.13.91-.54.55-.44.82-.11.48-.32.27h0l-.17-.27.11-.87,1-1.29,1.14-.82,1.62-1.35,1-1.2.64-1.4.16-1.36.7-1.14.55-1.24,1.41-2.11.81-1.19.6-1.14.64-.87.88-.91,1-.72.11-.81-.53-.8-.66-.28-1-.11-.8.06h0l-.43-.16.06-.88.16-.65-.39-.64.28-.71.37-.43-.16-.27-1.12-.1-2.86.47-1.89.23-1.68.16h0l.06-.39,2.6-.48,6.1-.81.33-.16,1.19-1,.22-1.25-.32-1.57-.55-1.4-1-.65.06-1.19.38-.6.91-.28h0l.93.44.78,0,.43-.26.38-.65.43-.22.7-.43h0l.49.21.49.92.69.27,1-.27h.78l1.47.38,1.94.44,1.33.1,1.08-.33,1.2-1,.7-1.19.76-2.22.76-2.26,1-1.14,1.4-1.41,1.4-1.47.82-1.08.27-1,1-1.73.33-1.19.1-2,.11-.47.6-.71.48-.48.6-.22.32-.49.05-.43.39-.33v-.38l-.92-.05-.38-.81-.87-.33-.43-.76.11-1-.87-.69-.73.15h-.57l.11-.21-1.41-2-1.08-1.36-.7-1.24-.81-.43-.77-.61-.75-1.13-.22-.49.11-.65-.82-.6-.7-1.3-.54-1.41-.42-2,.26-1.31.49-.48.16-.27-.6-.7-.1-.6.38-.87-.33-1.19-.27-.86-.54-.81-.87-.93-.27-.26.65-.49.16-.6.6-.49-.16-.7-.53-.34-.87-.11-.86-.16-.63-.21-.86.76-.48.42-.28.23h0l-.59-.49-1-.11-.84-.11-.75.76-.54.81-.28.38v.7l-2,.11h-3.57l-1.95.49-1.73.92-1,1.06-1.08,1.79-.93,2.16-1.44,3.26-1.2,2.38-1.19,1.41-.87.81-.16.38.44.54.05.7-.38,1-.37.65-.44,1.35-.33.6-.65.71-.59.32v.28l.33.42-.11.82-.27.21h0l-.54-.48-.75-.49-1.12.22h0l-.7-.11-.82-.22-.74-.16h-.42l-.65.27h0l-.68,0-.16.38v.33l.49.11,0,.34-.17.22-.7.22-.22,1,.38.16h.92l-.16.49-.7.32-.33.65V134l-.49.06-.1.33.1.22-.26,1.07-.06.49.43.28.38.27-.49.38h0l-.92-.23-.47-.3-.1.2.81.49.16.38h-.59l-.27.7h0l-.65-.22-.75-.37-1,.59-.81.76h-.52l-.2-.21-1.28.7-.65.92-.11.65,0,1-.71.93-.48.54h0l-.27-.28.38-.54.49-1.3v-.26l-.12-.55v-1.13l.87-.6.81-.38.6-.16.22-.93.54-.91,1-1.42.82-1.84-.12-1.45-.32-1v-1.09l.39-.81,1.12-.92.66-.43.27-.65-.21-.59-.23-.44-.05-.49.44-.64.7-.23.43-.48.32-.59,1-.6.87-.38,1-.44.54-.54.44-.32.65-.22,1.41-1.19.65-.87.86-1,1.73-1.81.88-.93.59-1.29v-1.26l-.33-.81-.92-.28-1.67-.16-2.12-.26-1.84-.17L307,110.5l-1.62-.53-1.08-.5-1.14-.87-1.3-.81-.38-.43-1.62-.16h-1.44l-1.19.26-.25.17-.23.5-.21.53-.11.59-.7.12h0l-.72-.49-.91-.6-.87-.54-.7-.65.05-.53-.73.36h0l-.71-.81-1.24-.91-2-1.85-1-1,.21-.87-.21-1.14-.82-.69h-.57l-.91,2.22-.6,1h-.41l.33-1,.65-1.47-.33-1.61-1-1.26-2-.86-1.09-.27-1.92-.22h-.54l-.54-.32-1,0-1.45.26-1.3.27L272,97l-.59.81-.43.54-.05.71-7.86-3.72.25-.44.29-.79.31-.45.25-.41-.23-.18.4-1.2.85-.13.16-.18.39-.3.12-.26.32-.37h.28l.51-.19V89l-.14-.37-.84-.18-.09-.46,1.43,0,.23-.37h.74l.18-.37.37-.28.79-.41.19-1,.91-2.29-.64-.93-.27-.78-1.45-2-.82-1.2-.56-.7-.18-.6-.66-.32-.45-.28-.42-.18-.22-.51-.33-.74-.42-.55-.64-.65-.41-.69-.84-.13-.62-.15-.37.24-.41.13-.46.32-.23.46L260,74v.6l-.7.46-.28.42-.64.18-.32.42-.37.33h-.38l-.36.54h-.56l-.64.66h0l-.74-.29-.14-.22.93-.89.87-.87.74-.42.83-.74.65-.69.37-.64.36-.51.56-.51.51-.28.18-.51.75-.78.25-.43-.49-1.45-.49-1.56-.65-2.31-.55-1.27-1.29-.53-.63-.13-1.6.3-1.73.86-1,.37h-.57l-.56.11h-.82l-.46.06h0l-.88-.3-.91-.17-.23.49.5.73.86,1.14-.27.68h0l-.77-.73-.64-.68-.63-.21-.47-.93-.09-1.25V61l-.27-4.53.14-.46.69-.09h0l.59,4.31.15.55.11.18.79,1.18.88.2.51-.14h.55l.89-.28.89-1.07,1.13-.9.45-.56h.42l.73-.1.18-.46.05-1.09-.45-.94-.14-.3-1-1.45-1.31-.8-.24-.89-.62-.7-2.43-.78-1.47-.74-2-1.17-.51-.48-3.05-2.69-1.54-.33-1.6.23h0l-.51-.23V44.62l-1.4-1.09-.71-.74-1.69-.87-3.05-.52-3.24,5.82h0l-.91-.51-.54-.52,2.87-5.81-9.31-5.08-2.37,4.21-1.7,3h0L216,41.73l.8-2.34-.81-.55-.52.16h-.76l-.38-.19-.31-.65-.59-.22-.45.17-1.14.35-.73.51-.36.78-.45.91-.41.41-1.87.48h0v-1l1.75-2,1.05-1.17.47-.36.36-.31.67-.26,1.29-.15.36-.62V35.3l-.19-.46-.18-.26-.48-.25-.66-.52-1.55-.62-1-.32h-.78l-.87-.2-1.11-.43-1.18.27-1.09.1-1.44.1h0l-1.52-.1L201,33l-1.44.18H198l-.5.18h0l-.84-.09L195.19,33h-1.51l-1,.31h-.92l-1.15.42-.56.33-1.15,0-.51.22-1.07.51-.55.09-.73.18-.79.47-.32.6-.87.73-.69.47h0l-1.3-.08h-.82l-1,.69-.91.93-.65,1-1.21.41-1,.6-1,.65-1.11.64-1,.46-1,.79-.42.31-1.15.62-1,.64-1.2,1-.73.93-1,.36-.64.51-.6.28-.47.09-.5.56-1,.87-.33.29-.41.13-.46.42-.74.54-.92.42-.14.47-.64.55-1.07.37v.83l-1,.42-.18.36-.6.28-1,.65-1.11.46-1.11.51-.46.41-.78.37v.69l-.51.14-.18.64h-.65l-.46.33H150l-1,.6-.88.12h-.81l-.6.51-.55.23-.65.55-.46.19-.69.51-.69.87-.65.6-1,1-.51.73-.56.87-.45.74-.28.83-.41.13-.14.51-.23.09-.18.15-.1.23-.19.22v.47l.47.19.13.6-.31.6-.19.32h0l-.41-.28-.51-.1-.19-.36-.27-.28-.54-.09-.5.37H136l-.19.6h0l-.39-.09-.37.5-.64.32-.05.37-.23.23-.19,1-.5.27-.14.47-.46.73v2l-.56.47-.46.36-.79.14-.65.88h0l-.19-.74-.64-.83-.9.13h-1.16l-1.29-.18-3.05.13h-2l-1,.28-1.39.37-1,.32v.74l.18.6v1.53h0l-.69-1.2-.32-.84-.45-.36-.35.13-.69.29h-.74l-.51-.19h-.39l-.51.19h0l-.65-.37-1-.88-1.38-1-1.11-.65-.92-.37-1.66-.65H104l-.76,1.68.55,1.1.46,2,1,.89.12,1.16,2.36,2.44,1,2,.6,1.16.6,2.35-.42,1.47-.69,1.16-1.52,1.1-.6,1.25-.93,1.71-1.82,1.64-1.52,1.89-1.11,1-1.1,1-.38.74-.13,1.29v.46l-.36.69-.56.25L98,106l-.55.74-.56,0-.59.46-.88.37h0l-.78-.33h-1l-.86,1.24-.18.83-.37.28-.92.13-.09.33-.51.23-.09.19-.42.32-.73.28-.75.32-.46.28L88.11,113l-.88.14-.09.46-.64.14h0l-.42-.46-.44-.13-.22.32-.37.18V114l.09.24v.32l-.65.28-1,.42-.7.22-.23,1.71.33.51h.73l.51,0,.32.69-.27.88-.6.41.09.6.27.73.6.15.37.51.51.09.65.41.69.37.6.88,1.15,1.2.47.23.5.46.37.78,1.3.14.41.37.5.18v.69l-.32.29-.19,1v.74l.42.69.73.88.88,1,.37.64.33.7v.78l.18.51.4.38v.4l-.42.38-.56.55-.51,1-.09,1.21-.09,1-.42.84-.13.6-.47.69v1.34l-.31.28V145h0l-.24-.18v-1.11l-.23-.78,0-.75-.22-.32V141l.18-.91.37-.74-.1-1.11-.73-.65-.1-1.85.19-.05.09-.41-.14-.46-.6-.05-.6-.55.09-.51.15-.51v-.83l-.28-.6-.47-.28v-.6l-.36-.32v-.37l.14-.42-.29-.41-.36-.46-.18-.55-.61-.69h-.36l-.33-.24-.27-.6-.47-.78h-.7l-.24-.28-.18-.6-.32-.41-.63-.18-.68.27-.46.56-.33.27-.32.64-.37.93-.13,1.16v4.57l.18,1.66-.55.46-.47.6h-.39l-.16,1.29h-1.2l-.36.27-.05.55-.37.32-.84.19-.22.23-.65.42-.46.18-.51.37-.46.87-1,.42h0l-.66-.08-.83.59-.7.18h0l-.6-.36-.6-.15.13-1.51h.49l.69.41h.81l.19-.37.37-.23.45-.19.19-.5.32-.47.33-.73,1.11-.23,1-.46.51-.51.64-.79.38-2v-1l-1,.35-.87.32-1.27.05h0l-1.52-.26-.45-.66,1-.14.23-.09.74-.19.92-.7.32-.36.47-.37,1-1-.18-1-.37-.59-1-.28.08-.18,1.1-.83v-.51l-.35-.7-.2-.89,1.17-.56.82-.48.22-2.68-.35-2.14-.28-.75-.62-.77-.94-.06-1,.41-.2.76-.9.68h0l.28-1.51-.06-1.45-.76-.61-.87.27-1,.69h-1l-1-.35-.81-.06-.88.48-.62,1h0L67.05,117l-.83.2h0l-.41-.27-.08-.55.08-.49v-2l-.55-.27v-1l.48-.69.07-.28-.76-.54-.34-.77h-.66l-.42.62-1,.83-.82.55-1.11.69v.49l-.34.13-.69,1-.55.27-.62,1V115h-.82l-.69-.55h0l.39.14.67-.14.7-.27.69-1.1.55-.9h0l.52.06.34-.53h.35l.48-.84.48-.48.62-.82.41-.42.63-.48h.44l.83.14.76.41.34.35,1.17,1.65,1.65,1.1.9.56.88.2,1.09-.28.69-.2h0l.56.2h1.17l3.82.21.14-1.1.49-.42h0l1,.07.88.41.27-.41L81,111l.21-.41.83-1,.83-.41.89-.13.82-.61.42-.14.28-.28.89-.54,1.65-1.66.56-.21.82-.69,1.53-1.53,1.23-1.58.69-1.59.07-1.44.28-.49v-.55l.34-.55h0l.36.48h.25l.47-.62.76-.48h0l.35.07h.87l.55-.27L96.84,96l.41-.35h.56l.41-.4-.34-.42v-.41l.68-.62h0l.65.21.68.84.78-2.09-.48-.48-2.14-.45-.86.86-.76.22h0l-.62-.35.06-1.31.28-1L96.7,89l.16-1.18L96.13,87l-1.24-.47.15-.84.49-.2,1.3-1-.13-.75-1.31-.55.37-.85-.06-.73-.17-.75-.5-1L93.88,79l-.34-.38.52-1.08V76.14l-.23-2.35.5-.87,1.18-.83v-.37l-.7-1.32L94,69.71l-1.52-.82-.86-.84-.75-.64-.69-.75-.12-.23L89.41,66l-.6-.51-.42-.35L88,64.29l-.81-.72-.6-.46-.29-.3-.14-.2-.27-1-.54-.2-.72.36-.9,1.37-.75,1.38-.49,1.17v1.1l-.16.31v0l.11,2.23-.2,1.11-.4.86-.52.11h0l-.22-1,.47-.54.26-.51L81.27,69l-.61-.18-.51.18-1,.52-.52.56-.44,1.11.25.93-.77.67-1.16.55-1,.86-.82.82-.71.18h0l-.59-.51H72.22L71.3,75l.14.38,1.34.26.45.48.37,1-.3,1-.81,1.38-.38.41h0l-.19-.49.26-1,.45-1.33-.56-.78-.89-.71-.33-.53.41-.74.7-.18,1.3-.11L75,73.3l1.22-.71,1.12-1.08.07-1.08.6-1.19,1.15-.77L80.21,68l.27-.14.54-.59v-1l.35-.28.13-.68.42-.9.46-.33,1.19-2.39-.81-.86-1,.26-.9.4-1.5.69-1.44.6-1.47.6h0l-1.33-.17h-.86l-.12-.84.5-1-.07-1.67-1-.67L72.18,59l-1,.31-1.52.35-1.34.09-1.25.35-1.72.18-1.72.56-1.22.08-1.48.37-1.59.5-1.45,1.16-1.36,1.4-1.1,1.21-2.12.93-.43.21-3.75,3V71l-.43.06h0L48.61,71l-.7.45-.24.23-.56.55-.89,1.32-1.12.76-.88.48-.62.62-1,.84-.53.53-1.13.91-1,1.08L38.5,80.06l-1.31,1.09M37,283.24l.22-.31-.09-.3-.37-.26m.87-24.11,1.23-.4.68-.51.51-.11h0v.51l-.36.51-.06.55.64.07.1.21h-.58v.19l.36.49.55.51.64.77.38.5.53.25.08-.66h.31l.11.62-.09.53,1.62.91h.6l1.15.3.18,2.94,8.32-.26v-7.83H56l.34-.36.29-.07,1-.7h0l.56.77.33.66h0l.08,5.53v8.87l.09.13V274l-.18.17v6.56l-1.1.05h-.28l-.72-.57h-.47l-.33-.39-.28-.31h-.11l-.16.14h-.16l-.22.06h0l-.2-.05h-.8l-.17-.08-.19-.09h-.18l-.17.1-.15.1h-.57l-.13.1-.19.11-.2.14-.29.21-.2.19-.23.1h-.21l-.19.15-.16.14-.09.18v.28l.06.27-.12.2-.19.06h-.86L49,282l-.36.31-.39.41-.08.15v.75l.11.26.16.22.25.17.27.21.17.15h0l.57.65.32.28.32.11.06.17.21.27.29.27.47.09.4.22.23.34.3.51.17.37.23.13.23.37.27.61.23.5-.08.26-.15.21H52.9l-.13.1-.15.24-.18.1-.26.21-.17.16v.26l.17.2h.24v.26l-.15.29v.22l.17.3.25.35L53,293l.21.32-.11.31-.28.18-.08.24v.4l.15.73.19.71.35.53.3.4.29.58.69.94.43.32h.77l.24.18h.3l.25.15.19.09.27-.21.25-.11h0l.08.15.2.2.41.4h.22v.17l-.08.09V300l.06.06v.14l-.12.09-.28.27-.23.44-.51.4-.44.23-.57.44-.59.52-.47.53-.22.25-.15.27v.12h.19v.12l-.21.06h-.29l-.28-.13h-.17l-.39-.07-.22-.26h-.17l-.23-.12-.38-.15-.85-.67-.18-.55-.35-.16-.51-.29-.26-.44-.35-.26-.3-.31-.46-.36-.15-.37-.25-.46-.14-.8-.18-.9-.23-.67-.06-.78-.3-.35-.18-.57-.3-.44-.27-.46-.45-.55-.72-.69-.55-.58-.07-.71-.18-.47-.53-.6-.4-.1-.47-.41H43.6l-.33.25-.29.31-.24.26-.48.35-.15.26v.21l-.35.28-.83.77-.35.08-.45.23-.32.36-.43.12-.37.2-.44.24-.33.69L38,295l-.17.46.53.48-.18.44.24.29-1.28,1.64.1.57.72.86-.48.35-.53.81m-.06-31.61v.47l1.31.06,1.19-.05h3.28l.52-.29.1-1.56.34-.85v-2.79H43l-.59-.05-1.36-.6-.45-.62-.58-.77-.37-.6-.47-.55-.31-.08-.36-.19-.31-.27-.47-.39-.43-.15-.37.05m.35,2.78h.23v.3l-.58.05M580,111.48l-1.62-2.25v-1L577,106.79,575.82,105l-.66-.7-2.28-2h-.81l-1.44-1.43-1.42-1.63-2.85-2.44-.81-.21-1.22-1.22-1.44-1-2-1h-1l-1.22-.4-2-.61-3.68-1.43-2-1.22-2.4-1.43h-2.65l-2.34-1.4-1.2-.08-2.6.88-.38,2-.61.61L535,91.51h-.61l-2-.2L531,89.93l-4.3.16-1.19-1.49-.23-.4L522.42,87,522,88.05l.48,2-.89,1.26L519.77,93l-2.45,2-.82,1.22-1.68.43-1.37.39-1-.82-4,.77-1-.17-1.15.08-.46-1.3-1.63-.21-1.86,2-.12,1.08.37,1,.19,1.64.56,2.27.67,2,1.22,3,1.21,1.81v1.49l-.78.46-.26,2L504,116.06l-1.42,2.45-.37,2,1,1.66.2.62,1.43,1.23,2.64,1.83,2.29,1.16,1.59.46.4.82,1,1,2,1.42.81,2.45,1,3.46,2.23.41h1.58l1.12.45.77.44,1,.16,1.15.18,1.12.33.76-.15.81.83,1.45.22.77-.22.46-.56.55-.12.78-.78.23-.22.56-.34,1-.67.67-.11.67-.34h.41l1-.28.56-.66,1.11-.67h1.34l1.46.21,1.34.57h1.23l1.46-.34,1.22-.34,1-.55h.56l-.12.62-.44.56-1,.56-1.22.33-1.46.34h-1.23l-1.34-.56-1.46.05-1.34-.27-1.11.67-.56.67-1.12.56-.33-.23-.67.34-.68.11-1,.67-.56.34-1,1-.44.23-.57.43-.77.22-1.45-.22-.85-.63h-.72l-1.12-.34h-1.23l-.9-.34-.77-.44-1.12-.45-2.19-.05,1.43,1.23.38.82.84,1.2,1.23,1.61,1.32,1.54,1,1.88,1,.68.47.69.71,1.08,1,1.63,1.52,2.1,1,.21.61,1.42.2,1.22,1.22.62.21.82v.85l-.22,5.2,1.31.85h.79l1.1.49,1.08-.11,1.41-.59,1.54-.82,1.45-.88,1.39-.69,1.6-.5,2-.6,5.48-2.49,3.59-1.1,2.7-1.39,1.89-.9,1.49-.7,1.8-.7,2.5-1,2.78-1.09,5.49-2.49.26-.95.54-3.84.44-2v-1.63l1.43-1-.41-1.83.41-.41v-.41l.18-1.32.42-1.33V132.5l.59-.32.41-1.42-.28-1,.61-1v-1.23l.81-2.24-.17-1.08.81-.61-.36-1.19-.28-.88H579l-.56.34-.56.56-1.22.56-1,.11-1.68.11-.89.11-1,.68-.9.33-.67.23-.77.11L569,125l-1,.23-.45.78-.78.22-.78.56h-.56l-.79.56-1.12-.11-.44.56-1.38,1.54-.55.56-1.12.33-1.23.11-.22.34h-1.25l-2.24.22-1,.23-.88.55-.27-.39v-.83l.89-.56,1-.23,2.23-.22h1.23l.23-.34,1.23-.11,1.12-.34.56-.55,1.22-1.68.45-.55,1.11.11.79-.56h.56l.78-.56.78-.22.45-.79,1-.22.67-.34.77-.11.68-.22.89-.34,1-.67.89-.11,1.68-.11,1-.11,1.22-.56.56-.56.56-.34.44-.07.28.11,1-1,2.23-2v-1.82ZM245,344.84l.69-1.16.78-1,1.2-1.91.79-1,.71-1.36.6-.67.75-1.16.26-.9-.75-.49-1.66-.87-.64-.33-1,.11-.93.45L245,335l-2.36.11-.57.3-.22,1.54-.85,1-.73.45-.48-.23.19-.49.45-.14.15-.31.26-.56.52-1.39-.11-.82-.15-.9-1.08-.19-1.35-.15-1.29-.38-1.56.12-1,.71-1,.19H231.5l-1.2-.45-1.48-1.1-.75-.38h-2.75l-3,.07-1.35-.18-1.43-.22-1.42-.64-1.36-1-.86-.63-.67-.46-.94-.18-.79-.31-.83-.78-.71-.19-.86-.38-.67-.37-1.13-.3-.79-.56-.37-.71-.38-.46-.43.32-.75,1-1,.42h-.78l-1.22-.09-1.09-.42-.67.17-1.51-.17-1.92-.24-1.84-.76-1.34-.59-1.5.26-1,.84.22.46.44.47.73.7.65.52.1.83.55.72.59.84.29.1.08-.42.44-.35.68-.06.68.11,1.1.68,1.08.75.94.9.82.68.64.71.91.71,1,1.09.57.31.56.33.71.67.45.57.15.6-.11.3-.42-.22-.14.08.11.29.6.3.56.3.6.4.75.56.67.3.76.12.15-.23v-.26h-.45l-.34-.34-.12-.3.24-.42.59-.22.64.22.94.3.86.45.46.6.71.84.41.52.68.22.71.45.89.61.49.82.16.94-.45.41h-.38l-.37-.26-.34.12.41.48.68.75.93.83,1,1,.6.94.41.72.9.1v-.18l-.45-.41-.12-.45v-.49l.31-.23.82.2.49.4.6.45.67.49.79.87,1.2,1v1l-.38.46v.22l.46.11.22.19.49.48.56.53.42-.08.37.31.63.79.69.3.67-.12.75-.3.87-.63.71-.6,1-.11h1l.53-.38.6-.11v.45l-.22.4v.15l.71-.26.89-.76,1.16-.67.8-.38.9-.82L240,350l.18-.6-.29-.18-.46.18-.3.22-.26-.4-.22-1.07.22-1.13.15-1.45-.26-1.86v-.78l.53-.94,1-1,.3-.19,1.17,1.12v.64l-.49.72v1l.34.75.11.57-.18.4-.2,1.32v1.24l.75-.79L243,347l1-1.09Z" transform="translate(-36.78 -32.24)"/>
  </g>
  <g>
    <path class="cls-2" d="M381.78,305.81H379.3V284.47h11.9v2.2h-9.42v7.81h8.85v2.2h-8.85Z" transform="translate(-36.78 -32.24)"/>
    <path class="cls-2" d="M404.2,305.81l-.48-2.28h-.12a6.77,6.77,0,0,1-2.38,2,7.41,7.41,0,0,1-3,.53,5.33,5.33,0,0,1-3.73-1.23,4.48,4.48,0,0,1-1.35-3.49q0-4.85,7.75-5.08l2.71-.08v-1a4.07,4.07,0,0,0-.81-2.78,3.32,3.32,0,0,0-2.59-.89,10.48,10.48,0,0,0-4.52,1.22l-.75-1.85a11.51,11.51,0,0,1,5.42-1.37,6.07,6.07,0,0,1,4.24,1.27,5.28,5.28,0,0,1,1.38,4.07v10.92Zm-5.47-1.71a4.89,4.89,0,0,0,3.55-1.24,4.62,4.62,0,0,0,1.3-3.48v-1.44l-2.43.1a8.82,8.82,0,0,0-4.16.9,2.68,2.68,0,0,0-1.28,2.47,2.48,2.48,0,0,0,.79,2A3.31,3.31,0,0,0,398.73,304.1Z" transform="translate(-36.78 -32.24)"/>
    <path class="cls-2" d="M418.29,289.52a10,10,0,0,1,1.91.17l-.33,2.25a8.11,8.11,0,0,0-1.76-.22,4.28,4.28,0,0,0-3.32,1.58,5.74,5.74,0,0,0-1.38,3.92v8.59H411v-16h2l.28,3h.11a7.15,7.15,0,0,1,2.15-2.41A4.87,4.87,0,0,1,418.29,289.52Z" transform="translate(-36.78 -32.24)"/>
    <path class="cls-2" d="M443.59,305.81V295.4a4.37,4.37,0,0,0-.82-2.87,3.16,3.16,0,0,0-2.54-.95,4.11,4.11,0,0,0-3.34,1.29,6.18,6.18,0,0,0-1.08,4v8.94h-2.43V295.4a4.37,4.37,0,0,0-.81-2.87,3.19,3.19,0,0,0-2.56-.95,3.93,3.93,0,0,0-3.33,1.36,7.35,7.35,0,0,0-1.06,4.47v8.4h-2.43v-16h2l.39,2.19h.12a4.73,4.73,0,0,1,1.93-1.83,6,6,0,0,1,2.79-.65c2.51,0,4.14.9,4.91,2.71h.12a5,5,0,0,1,2.07-2,6.36,6.36,0,0,1,3.09-.73,5.43,5.43,0,0,1,4.07,1.39,6.25,6.25,0,0,1,1.35,4.46v10.44Z" transform="translate(-36.78 -32.24)"/>
    <path class="cls-2" d="M463.93,304.1a9.47,9.47,0,0,0,2.19-.29v1.85A4.19,4.19,0,0,1,465,306a8,8,0,0,1-1.38.13q-4.63,0-4.64-4.89v-9.52h-2.29v-1.17l2.29-1,1-3.42h1.4v3.71H466v1.88h-4.65v9.42a3.24,3.24,0,0,0,.69,2.22A2.41,2.41,0,0,0,463.93,304.1Z" transform="translate(-36.78 -32.24)"/>
    <path class="cls-2" d="M483.13,297.79a8.84,8.84,0,0,1-2,6.11,6.94,6.94,0,0,1-5.45,2.2,7.23,7.23,0,0,1-3.81-1,6.65,6.65,0,0,1-2.57-2.89,10.09,10.09,0,0,1-.9-4.41,8.78,8.78,0,0,1,2-6.09,6.89,6.89,0,0,1,5.43-2.18,6.76,6.76,0,0,1,5.33,2.23A8.77,8.77,0,0,1,483.13,297.79Zm-12.19,0a7.56,7.56,0,0,0,1.23,4.67,4.85,4.85,0,0,0,7.21,0,7.49,7.49,0,0,0,1.24-4.68,7.36,7.36,0,0,0-1.24-4.63,4.95,4.95,0,0,0-7.23,0A7.48,7.48,0,0,0,470.94,297.79Z" transform="translate(-36.78 -32.24)"/>
    <path class="cls-2" d="M498,305.81h-2.48V284.47H507.4v2.2H498v7.81h8.84v2.2H498Z" transform="translate(-36.78 -32.24)"/>
    <path class="cls-2" d="M510.37,285.47a1.63,1.63,0,0,1,.4-1.22,1.49,1.49,0,0,1,1-.38,1.41,1.41,0,0,1,1,.39,1.59,1.59,0,0,1,.43,1.21,1.61,1.61,0,0,1-.43,1.22,1.38,1.38,0,0,1-1,.4,1.42,1.42,0,0,1-1-.4A1.65,1.65,0,0,1,510.37,285.47ZM513,305.81h-2.42v-16H513Z" transform="translate(-36.78 -32.24)"/>
    <path class="cls-2" d="M529.08,305.81V295.46a4.18,4.18,0,0,0-.89-2.92,3.64,3.64,0,0,0-2.79-1,4.62,4.62,0,0,0-3.68,1.35c-.78.91-1.17,2.4-1.17,4.48v8.4h-2.42v-16h2l.4,2.19h.11a4.91,4.91,0,0,1,2.09-1.83,6.69,6.69,0,0,1,3-.65,6.06,6.06,0,0,1,4.35,1.39c1,.93,1.46,2.42,1.46,4.46v10.44Z" transform="translate(-36.78 -32.24)"/>
    <path class="cls-2" d="M546.32,305.81l-.48-2.28h-.12a6.79,6.79,0,0,1-2.39,2,7.34,7.34,0,0,1-3,.53,5.34,5.34,0,0,1-3.73-1.23,4.48,4.48,0,0,1-1.35-3.49q0-4.85,7.75-5.08l2.72-.08v-1a4.07,4.07,0,0,0-.81-2.78,3.33,3.33,0,0,0-2.59-.89,10.52,10.52,0,0,0-4.53,1.22l-.74-1.85a11.17,11.17,0,0,1,2.59-1,11.36,11.36,0,0,1,2.82-.36,6.07,6.07,0,0,1,4.24,1.27,5.28,5.28,0,0,1,1.38,4.07v10.92Zm-5.48-1.71a4.92,4.92,0,0,0,3.56-1.24,4.61,4.61,0,0,0,1.29-3.48v-1.44l-2.42.1a8.83,8.83,0,0,0-4.17.9,2.7,2.7,0,0,0-1.28,2.47,2.48,2.48,0,0,0,.8,2A3.28,3.28,0,0,0,540.84,304.1Z" transform="translate(-36.78 -32.24)"/>
    <path class="cls-2" d="M564.05,305.81V295.46a4.13,4.13,0,0,0-.89-2.92,3.63,3.63,0,0,0-2.79-1,4.59,4.59,0,0,0-3.67,1.35c-.78.91-1.17,2.4-1.17,4.48v8.4h-2.42v-16h2l.39,2.19h.12a4.89,4.89,0,0,1,2.08-1.83,6.73,6.73,0,0,1,3-.65,6.1,6.1,0,0,1,4.35,1.39,6,6,0,0,1,1.46,4.46v10.44Z" transform="translate(-36.78 -32.24)"/>
    <path class="cls-2" d="M577.85,306.1a6.81,6.81,0,0,1-5.38-2.14,8.78,8.78,0,0,1-1.91-6,9,9,0,0,1,1.94-6.2,7,7,0,0,1,5.51-2.19,11.23,11.23,0,0,1,2.3.24,8,8,0,0,1,1.81.59l-.74,2.06a12,12,0,0,0-1.75-.54,8,8,0,0,0-1.68-.21c-3.25,0-4.88,2.08-4.88,6.22a7.45,7.45,0,0,0,1.19,4.53,4.15,4.15,0,0,0,3.53,1.57,10.67,10.67,0,0,0,4.1-.86v2.15A8.8,8.8,0,0,1,577.85,306.1Z" transform="translate(-36.78 -32.24)"/>
    <path class="cls-2" d="M592.44,306.1a7.37,7.37,0,0,1-5.6-2.16,8.39,8.39,0,0,1-2.05-6,9.29,9.29,0,0,1,1.91-6.15,6.33,6.33,0,0,1,5.11-2.27,6,6,0,0,1,4.76,2,7.54,7.54,0,0,1,1.76,5.21v1.54h-11a6.34,6.34,0,0,0,1.43,4.27,4.9,4.9,0,0,0,3.8,1.46,12.89,12.89,0,0,0,5.11-1.08v2.16a13,13,0,0,1-2.43.8A13.79,13.79,0,0,1,592.44,306.1Zm-.65-14.55a4,4,0,0,0-3.08,1.25,5.86,5.86,0,0,0-1.35,3.48h8.37a5.37,5.37,0,0,0-1-3.52A3.62,3.62,0,0,0,591.79,291.55Z" transform="translate(-36.78 -32.24)"/>
  </g>
  <g>
    <path class="cls-2" d="M432.34,313.55a1.07,1.07,0,0,1,.27-.81.92.92,0,0,1,.68-.26,1,1,0,0,1,.68.26,1.09,1.09,0,0,1,.28.81,1.1,1.1,0,0,1-.28.81,1,1,0,0,1-.68.27.93.93,0,0,1-.68-.27A1.1,1.1,0,0,1,432.34,313.55Zm1.75,13.55h-1.61V316.44h1.61Z" transform="translate(-36.78 -32.24)"/>
    <path class="cls-2" d="M444.82,327.1v-6.9a2.75,2.75,0,0,0-.6-1.94,2.4,2.4,0,0,0-1.86-.64,3.08,3.08,0,0,0-2.45.9,4.56,4.56,0,0,0-.78,3v5.59h-1.61V316.44h1.31l.26,1.46h.08a3.31,3.31,0,0,1,1.39-1.22,4.55,4.55,0,0,1,2-.44,4.06,4.06,0,0,1,2.9.93,4,4,0,0,1,1,3v7Z" transform="translate(-36.78 -32.24)"/>
    <path class="cls-2" d="M463.2,323.32a3.49,3.49,0,0,1-1.36,2.93,5.92,5.92,0,0,1-3.7,1.05,9.29,9.29,0,0,1-3.89-.65v-1.6a9.81,9.81,0,0,0,1.9.58,9.6,9.6,0,0,0,2.05.22,4.12,4.12,0,0,0,2.49-.63,2.06,2.06,0,0,0,.84-1.75,2.24,2.24,0,0,0-.3-1.21,2.88,2.88,0,0,0-1-.87,14,14,0,0,0-2.12-.9,6.87,6.87,0,0,1-2.84-1.69,3.7,3.7,0,0,1-.85-2.54,3.13,3.13,0,0,1,1.24-2.61,5.12,5.12,0,0,1,3.27-1,9.63,9.63,0,0,1,3.9.78l-.52,1.44a8.83,8.83,0,0,0-3.42-.74,3.32,3.32,0,0,0-2.06.57,1.85,1.85,0,0,0-.74,1.56,2.38,2.38,0,0,0,.28,1.21,2.51,2.51,0,0,0,.92.87,11.72,11.72,0,0,0,2,.87,7.82,7.82,0,0,1,3.08,1.71A3.38,3.38,0,0,1,463.2,323.32Z" transform="translate(-36.78 -32.24)"/>
    <path class="cls-2" d="M465.73,313.55a1.07,1.07,0,0,1,.27-.81.92.92,0,0,1,.68-.26,1,1,0,0,1,.67.26,1.05,1.05,0,0,1,.29.81,1.07,1.07,0,0,1-.29.81,1,1,0,0,1-1.35,0A1.1,1.1,0,0,1,465.73,313.55Zm1.75,13.55h-1.61V316.44h1.61Z" transform="translate(-36.78 -32.24)"/>
    <path class="cls-2" d="M478.2,327.1v-6.9a2.75,2.75,0,0,0-.59-1.94,2.41,2.41,0,0,0-1.86-.64,3.08,3.08,0,0,0-2.45.9,4.56,4.56,0,0,0-.78,3v5.59h-1.61V316.44h1.31l.26,1.46h.08a3.25,3.25,0,0,1,1.39-1.22,4.52,4.52,0,0,1,2-.44,4.06,4.06,0,0,1,2.9.93,4,4,0,0,1,1,3v7Z" transform="translate(-36.78 -32.24)"/>
    <path class="cls-2" d="M491.87,316.44v1l-2,.23a3.52,3.52,0,0,1,.49.89,3.47,3.47,0,0,1,.21,1.24,3.15,3.15,0,0,1-1.07,2.51,4.32,4.32,0,0,1-2.94.93,5.08,5.08,0,0,1-.89-.08,1.58,1.58,0,0,0-1,1.37.69.69,0,0,0,.36.65,2.6,2.6,0,0,0,1.23.21h1.89a4.21,4.21,0,0,1,2.66.73,2.53,2.53,0,0,1,.93,2.12,3,3,0,0,1-1.42,2.7,7.6,7.6,0,0,1-4.14.93,5.65,5.65,0,0,1-3.23-.78,2.5,2.5,0,0,1-1.13-2.2,2.43,2.43,0,0,1,.62-1.68,3.18,3.18,0,0,1,1.75-1,1.82,1.82,0,0,1-.69-.58,1.54,1.54,0,0,1-.27-.9,1.69,1.69,0,0,1,.31-1,3.13,3.13,0,0,1,1-.85,2.9,2.9,0,0,1-1.35-1.16,3.84,3.84,0,0,1,.53-4.57,4.32,4.32,0,0,1,3-.95,5.41,5.41,0,0,1,1.51.2Zm-8.51,12.45a1.47,1.47,0,0,0,.73,1.32,4,4,0,0,0,2.09.45,5.94,5.94,0,0,0,3-.61,1.87,1.87,0,0,0,1-1.65,1.29,1.29,0,0,0-.53-1.2,4.1,4.1,0,0,0-2-.34h-1.93a2.54,2.54,0,0,0-1.71.53A1.87,1.87,0,0,0,483.36,328.89Zm.88-9a2.2,2.2,0,0,0,.63,1.7,2.54,2.54,0,0,0,1.76.57,2.06,2.06,0,0,0,2.37-2.3,2.12,2.12,0,0,0-2.4-2.4,2.4,2.4,0,0,0-1.75.61A2.47,2.47,0,0,0,484.24,319.85Z" transform="translate(-36.78 -32.24)"/>
    <path class="cls-2" d="M500.62,327.1l-.33-1.51h-.07a4.62,4.62,0,0,1-1.59,1.35,4.82,4.82,0,0,1-2,.36,3.54,3.54,0,0,1-2.48-.82,3,3,0,0,1-.9-2.32q0-3.24,5.17-3.39l1.81-.06v-.66a2.72,2.72,0,0,0-.54-1.86,2.26,2.26,0,0,0-1.73-.59,7.09,7.09,0,0,0-3,.81l-.49-1.23a7.84,7.84,0,0,1,3.61-.92,4,4,0,0,1,2.82.85,3.5,3.5,0,0,1,.92,2.71v7.28ZM497,326a3.3,3.3,0,0,0,2.37-.82,3.09,3.09,0,0,0,.86-2.32v-1l-1.62.07a5.76,5.76,0,0,0-2.78.6,1.81,1.81,0,0,0-.85,1.64,1.69,1.69,0,0,0,.53,1.34A2.25,2.25,0,0,0,497,326Z" transform="translate(-36.78 -32.24)"/>
    <path class="cls-2" d="M510.1,327.3a4.58,4.58,0,0,1-1.9-.39,3.49,3.49,0,0,1-1.44-1.18h-.12a13.85,13.85,0,0,1,.12,1.77v4.39h-1.62V316.44h1.31l.23,1.46h.08a3.63,3.63,0,0,1,1.45-1.27,4.37,4.37,0,0,1,1.89-.39,4,4,0,0,1,3.28,1.45,7.74,7.74,0,0,1,0,8.15A4,4,0,0,1,510.1,327.3Zm-.23-9.68a2.89,2.89,0,0,0-2.37.9,4.67,4.67,0,0,0-.74,2.88v.36a5.43,5.43,0,0,0,.74,3.22,2.88,2.88,0,0,0,2.41,1,2.5,2.5,0,0,0,2.16-1.12,5.27,5.27,0,0,0,.79-3.09,5,5,0,0,0-.79-3.06A2.56,2.56,0,0,0,509.87,317.62Z" transform="translate(-36.78 -32.24)"/>
    <path class="cls-2" d="M526.56,321.76a5.89,5.89,0,0,1-1.31,4.07,4.63,4.63,0,0,1-3.63,1.47,4.86,4.86,0,0,1-2.54-.67,4.5,4.5,0,0,1-1.72-1.93,6.77,6.77,0,0,1-.6-2.94,5.86,5.86,0,0,1,1.3-4.06,4.62,4.62,0,0,1,3.62-1.46,4.52,4.52,0,0,1,3.56,1.49A5.86,5.86,0,0,1,526.56,321.76Zm-8.13,0a5.13,5.13,0,0,0,.82,3.12,3.24,3.24,0,0,0,4.81,0,5,5,0,0,0,.82-3.12,5,5,0,0,0-.82-3.09,2.89,2.89,0,0,0-2.43-1.05,2.83,2.83,0,0,0-2.39,1A5,5,0,0,0,518.43,321.76Z" transform="translate(-36.78 -32.24)"/>
    <path class="cls-2" d="M534.26,316.24a6.16,6.16,0,0,1,1.27.12l-.22,1.5a5.35,5.35,0,0,0-1.17-.15,2.84,2.84,0,0,0-2.21,1.05,3.81,3.81,0,0,0-.92,2.62v5.72h-1.62V316.44h1.33l.19,2H531a4.57,4.57,0,0,1,1.43-1.6A3.18,3.18,0,0,1,534.26,316.24Z" transform="translate(-36.78 -32.24)"/>
    <path class="cls-2" d="M542,327.3a4.89,4.89,0,0,1-3.73-1.44,5.59,5.59,0,0,1-1.37-4,6.17,6.17,0,0,1,1.27-4.1,4.23,4.23,0,0,1,3.41-1.52,4,4,0,0,1,3.17,1.32A5.05,5.05,0,0,1,546,321v1h-7.34a4.2,4.2,0,0,0,.94,2.85,3.29,3.29,0,0,0,2.54,1,8.63,8.63,0,0,0,3.41-.72v1.44a7.76,7.76,0,0,1-3.47.69Zm-.44-9.7a2.67,2.67,0,0,0-2.05.83,4,4,0,0,0-.9,2.32h5.58a3.57,3.57,0,0,0-.68-2.34A2.41,2.41,0,0,0,541.59,317.6Z" transform="translate(-36.78 -32.24)"/>
  </g>
</svg>
